<svg width="1300" height="500" viewBox="0 0 1300 500" fill="none" xmlns="http://www.w3.org/2000/svg">
<g clip-path="url(#clip0_447_37417)">
<rect width="1300" height="500" fill="#F4F7F9"/>
<path d="M383.665 348.517C389.74 342.887 386.712 331.565 393.371 328.616C393.155 332.782 390.38 332.076 394.943 332.393C395.742 330.908 396.045 329.719 396.845 328.234C397.349 326.252 394.473 325.942 397.464 322.483C398.25 324.371 399.446 322.987 400.145 321.898C400.844 320.81 401.046 320.017 401.745 318.929C400.152 320.212 398.761 320.702 398.17 319.708C399.87 316.342 397.989 315.441 399.589 312.471C401.491 308.313 405.57 305.552 409.145 304.773C411.544 300.319 413.944 295.864 416.444 291.014C415.651 290.812 414.859 290.61 413.468 291.1C414.873 287.237 411.795 287.72 413.496 284.354C414.195 283.266 416.472 284.268 417.178 281.493C418.381 278.422 415.607 277.716 418.302 273.759C420.788 272.281 422.683 269.809 425.357 270.912C424.342 276.562 422.158 276.851 417.971 281.694C419.355 282.891 419.953 282.199 421.048 281.211C428.146 268.245 435.936 255.876 444.021 244.005L443.524 244.3C440.929 247.861 438.335 251.422 435.366 249.822C437.275 243.977 439.445 247.061 441.642 243.4C443.141 240.826 440.265 240.517 443.155 237.454C444.344 237.756 445.231 239.248 446.427 237.864C447.544 231.817 450.513 233.417 453.806 228.768L451.233 227.269C449.136 230.534 446.838 234.592 444.56 233.59C446.873 226.159 449.244 228.451 453.835 222.022C452.357 219.535 456.046 214.987 459.023 214.9C456.14 216.277 456.71 222.331 456.307 223.917C456.408 223.52 454.721 223.513 454.519 224.306C454.613 225.596 454.808 226.49 455.5 227.088C456.797 225.308 458.094 223.527 459.29 222.144C458.995 221.646 459.197 220.853 460.789 219.57C460.789 219.57 461.186 219.671 461.085 220.068C464.774 215.519 468.464 210.971 472.153 206.423C470.272 205.522 472.759 204.045 473.659 202.163C473.76 201.767 472.773 200.672 472.974 199.879C473.774 198.394 475.864 196.815 476.664 195.331C476.866 194.538 476.692 188.585 480.058 190.285C477.457 195.532 483.337 189.009 484.325 190.105C483.626 191.193 483.323 192.382 483.914 193.377C487.899 189.326 491.985 184.878 495.87 181.224C493.102 178.831 497.087 174.781 493.425 172.583C500.985 167.753 495.839 164.755 502.505 160.12C504.393 159.335 505.172 162.909 507.363 160.934C509.856 157.77 512.054 154.108 516.731 150.656C519.03 146.598 512.795 142.901 520.751 138.172C524.614 139.577 517.646 145.401 523.109 143.837C524.607 141.264 526.899 138.892 525.421 136.406C528.607 133.84 533.277 132.073 532.195 129.688C529.313 131.065 527.619 132.744 526.026 134.027C524.434 135.311 523.043 135.801 520.859 136.089C528.022 131.159 536.08 126.034 542.739 123.085C545.124 122.004 545.816 122.602 549.391 121.823C549.391 121.823 554.565 118.075 554.256 120.95C553.456 122.435 548.987 123.409 551.359 125.7C552.75 125.21 553.442 125.808 554.833 125.318C558.213 123.645 555.942 120.957 560.612 119.191C562.486 121.778 557.319 123.84 557.11 126.319C561.276 126.535 564.959 123.673 566.263 120.207C567.769 115.947 565.866 120.106 569.239 120.12C571.819 119.932 576.295 117.272 572.035 115.766C576.013 113.402 575.3 117.863 578.284 116.09C581.664 114.417 586.132 113.444 585.447 111.159C585.562 107.39 574.421 114.685 577.808 111.326C584.964 108.082 591.522 105.53 597.583 103.273C603.644 101.017 608.516 98.4575 612.992 95.7975C614.275 97.3902 616.956 96.8061 618.44 97.6059C616.935 101.866 609.006 99.8485 609.295 102.032C613.165 101.751 610.168 106.897 612.553 105.816C615.839 102.853 621.799 100.993 622.498 99.9046C619.925 98.4058 613.395 94.2119 621.64 91.6668C623.319 93.3603 620.04 94.6364 622.512 96.5316C627.975 94.967 632.739 94.4908 635.507 96.8832C635.326 92.6166 644.378 86.9002 651.03 85.6381C649.358 82.2581 656.709 79.9078 655.93 76.3331C651.57 75.2236 646.993 78.28 641.826 80.3419C637.552 82.2091 632.493 82.188 629.214 83.4641C622.259 85.9154 614.497 91.5379 606.152 94.4794C603.37 95.4599 600.091 96.736 596.415 97.9111C593.136 99.1872 589.461 100.362 586.282 101.242C579.724 103.794 573.663 106.051 570.283 107.723C570.888 105.345 563.833 108.192 562.838 108.784C562.838 108.784 564.618 110.081 565.015 110.182C558.846 114.521 542.356 119.611 548.647 109.816C551.818 110.623 557.584 107.869 560.755 108.676C560.762 106.989 562.254 106.103 560.574 104.409C550.838 107.841 552.524 107.848 544.676 110.494C544.864 113.074 545.649 114.962 543.452 118.624C539.272 121.781 539.387 118.011 536.108 119.288C531.733 121.551 527.258 124.211 523.28 126.576C519.301 128.94 515.821 131.009 512.743 131.492C510.25 134.656 506.668 137.122 503.879 139.789C500.694 142.355 497.509 144.921 493.927 147.386C492.334 148.669 490.446 149.455 488.853 150.738C487.261 152.021 485.769 152.908 484.176 154.191C481.092 156.361 478.404 158.631 476.112 161.003C483.088 153.492 475.247 154.451 471.686 151.857C475.772 147.41 477.639 151.684 482.028 146.047C481.249 142.472 480.873 137.312 475.598 141.457C476.586 142.552 477.479 142.357 478.77 142.264C474.684 146.711 470.598 151.158 467.903 155.115C464.811 158.972 463.305 163.231 461.9 167.094C463.889 165.912 465.986 162.647 467.781 160.571C469.676 158.099 472.162 156.621 475.233 157.824C468.365 163.252 473.431 161.587 472.033 163.764C472.134 163.367 469.749 164.449 469.05 165.537C467.853 166.921 468.041 169.501 467.342 170.589C464.352 174.049 459.278 177.401 454.997 180.955C455.797 179.47 456.402 177.092 454.413 178.274C445.939 188.358 438.768 194.975 431.893 202.089C425.019 209.203 418.634 217.709 410.844 230.077C408.661 230.366 406.571 231.944 404.192 231.339C407.103 223.216 412.552 225.025 411.081 220.852C413.171 219.273 414.937 223.943 417.041 218.992C415.852 218.689 413.762 220.268 414.468 217.493C417.445 217.406 420.355 209.283 423.245 206.22C418.179 207.885 425.94 202.263 427.151 197.506C429.616 201.087 432.52 194.651 434.898 195.256C438.494 189.418 430.242 193.65 433.636 188.604C437.607 187.926 436.397 192.683 441.276 188.437C443.373 185.172 439.826 179.205 445.974 179.925C442.291 182.787 443.164 187.652 445.355 185.677C449.34 181.626 444.979 180.516 448.964 176.465C451.854 173.402 458.788 176.01 459.703 170.756C457.015 173.027 454.73 173.711 452.351 173.106C456.048 166.872 459.824 165.3 465.013 158.179C463.333 156.485 465.128 154.409 462.158 152.81C469.235 144.903 476.902 137.99 481.976 134.638C488.642 130.003 492.641 122.579 497.398 123.789C493.218 126.947 489.435 130.205 485.255 133.362C489.421 133.578 485.45 134.256 484.139 139.409C483.735 140.995 483.829 142.285 483.426 143.87C484.716 143.776 490.978 140.727 489.796 138.738C487.908 139.524 486.02 140.31 484.73 140.403C490.509 134.277 491.879 138.846 496.354 136.186C497.551 134.802 500.037 133.324 501.63 132.041C503.619 130.859 504.815 129.475 502.934 128.574C510.688 124.638 518.551 118.619 524 120.428C525.599 117.458 525.613 114.085 528.503 111.022C530.982 111.23 531.963 114.012 536.539 110.956C539.429 107.893 538.946 104.815 545.9 102.364C546.888 103.459 546.679 105.939 548.964 105.254C552.841 103.286 555.018 104.684 557.8 103.703C559.191 103.213 559.392 102.42 559.493 102.024C559.695 101.231 560.293 100.539 560.79 100.243C561.187 100.344 564.055 102.34 563.767 100.156C562.88 98.6646 560.192 100.935 560.004 98.355C565.366 97.1868 562.8 94.0015 568.162 92.8333C569.042 96.0116 574.317 91.8669 577.193 92.1764C576.703 90.7855 578.094 90.2952 577.207 88.8034C574.237 87.2038 572.328 93.049 569.063 90.9521C572.832 91.067 571.462 86.4978 569.077 87.5791C566.49 89.4533 565.885 91.8318 560.919 93.1008C561.806 94.5926 560.112 96.2721 558.728 95.0758C561.517 92.4089 559.744 89.4253 554.771 92.3808C556.739 96.2581 553.352 99.617 549.965 102.976C542.931 100.764 555.644 97.2456 551.297 92.7632C543.153 94.9119 544.819 99.9784 538.57 99.6548C537.071 102.228 538.448 105.111 534.766 107.972C532.683 107.864 530.996 107.857 528.813 108.146C528.013 109.631 523.537 112.291 519.66 114.259C515.783 116.227 513.592 118.202 516.864 118.612C512.584 122.166 511.704 118.988 508.223 121.057C504.245 123.421 501.16 125.591 498.573 127.465C495.986 129.339 493.795 131.314 490.322 131.696C491.532 126.94 496.988 127.061 499.777 124.394C500.375 123.702 497.902 121.807 501.477 121.029C503.257 122.326 500.771 123.803 500.368 125.389C506.234 122.239 506.443 119.759 504.965 117.273C506.853 116.487 508.446 115.204 510.334 114.418C512.323 113.236 514.312 112.054 516.301 110.872C520.676 108.608 525.151 105.948 529.627 103.288C531.01 104.485 528.719 106.856 531.104 105.775C535.976 103.215 532.019 100.52 535.103 98.3507C540.465 97.1825 547.622 93.9384 553.885 90.8891C558.655 88.7263 563.03 86.4627 565.409 87.0678C563.917 87.9546 561.733 88.2431 561.827 89.5331C567.585 88.4658 566.605 85.6839 569.985 84.0115C575.75 81.2576 579.419 81.7689 583.786 81.1919C583.296 79.8009 582.013 78.2082 585.191 77.3286C590.452 76.5568 585.278 80.3052 588.255 80.2183C589.646 79.7281 589.941 80.2254 591.231 80.1315C592.031 78.6467 590.056 76.456 593.631 75.6772C602.38 71.15 606.733 73.946 613.883 72.3883C613.299 69.7073 618.473 65.959 613.219 65.0443C615.402 64.7558 619.287 61.1012 620.073 62.9894C618.278 65.0653 614.877 71.7972 620.736 70.3335C618.379 64.6689 630.285 64.3216 631.899 57.979C629.413 59.4568 627.726 59.4498 626.94 57.5616C631.913 54.606 634.688 55.312 639.761 51.96C641.851 50.3814 640.669 48.3924 644.842 46.9216C647.704 50.6042 653.563 49.1405 658.723 48.7651C657.729 49.3562 657.527 50.149 658.515 51.2444C663.393 46.9988 663.07 53.2475 667.35 49.6938C667.364 46.3208 664.179 48.887 662.795 47.6908C671.934 44.9509 678.318 36.4457 685.057 38.1602C683.854 41.2306 680.582 40.8202 677.699 42.1971C676.993 44.972 678.471 47.4583 675.682 50.1253C673.008 49.0229 677.094 44.5755 673.418 45.7508C667.156 48.8001 665.354 52.5626 661.074 56.1162C664.728 60.0005 670.925 48.915 673.787 52.5976C664.144 57.3195 675.957 55.682 673.161 60.0355C672.57 59.041 670.184 60.1224 670.674 61.5133C673.932 65.2968 675.553 57.2677 677.233 58.9612C675.035 62.6228 674.531 64.6048 668.174 66.3641C668.657 69.4415 662.2 71.5972 663.079 74.7755C665.76 74.1914 668.744 72.4181 670.229 73.2179C666.842 76.5769 661.292 75.1649 661.48 77.745C661.761 81.6153 667.735 76.3821 668.434 75.2937C669.314 78.4721 672.492 77.5924 675.476 75.8191C675.98 73.837 678.668 71.5664 678.776 69.4836C676.189 71.3577 673.904 72.0427 673.018 70.5509C676.599 68.0856 678.178 70.1755 681.659 68.1066C681.068 67.1121 680.974 65.822 683.259 65.1371C687.518 66.6429 688.13 62.578 691.309 61.6984C692.202 61.5036 693.19 62.599 694.581 62.1088C694.581 62.1088 695.683 59.4348 697.276 58.1517C699.863 56.2775 703.74 54.3094 707.221 52.2406C711.199 49.8762 718.06 46.1348 721.13 47.3381C719.041 48.9167 714.471 50.2866 717.441 51.8863C720.72 50.6102 719.141 48.5203 723.213 47.446C727.682 46.4725 725.679 51.0276 728.655 50.9408C725.592 48.0511 733.736 45.9024 734.045 43.0267C738.023 40.6623 744.164 43.0687 746.268 38.1171C742.881 41.4761 742.203 37.505 739.818 38.5863C734.254 40.5474 731.667 42.4215 727.386 45.9752C726.002 44.7789 722.219 48.0371 721.736 44.9596C732.366 41.3332 744.912 30.1749 752.163 28.2209C751.672 26.83 754.159 25.3522 754.858 24.2638C757.135 25.2654 760.126 21.8056 762.612 20.3278C764.601 19.1456 769.271 17.3793 770.367 16.3918C770.864 16.0962 770.575 13.9124 771.57 13.3214C779.627 8.19612 789.371 3.07782 799.215 -2.43684C800.7 -1.637 800.881 2.62961 803.071 0.654571C804.368 -1.12573 803.186 -3.1148 806.17 -4.88812C808.548 -4.28298 804.462 0.164355 808.339 -1.80363C807.748 -2.79819 807.157 -3.79269 809.543 -4.87407C816.894 -7.22449 819.69 -11.578 824.965 -15.7227C825.462 -16.0183 826.551 -15.3193 827.747 -16.7032C828.345 -17.3952 828.748 -18.9808 829.642 -19.1755C830.139 -19.471 832.41 -16.783 834.507 -20.0481C836.099 -21.3312 833.923 -22.7292 836.805 -24.1061C840.791 -28.157 841.065 -22.6003 844.452 -25.9592C843.673 -29.5339 850.239 -33.7725 852.04 -37.5349C842.088 -29.9374 826.37 -19.5859 816.518 -12.3848C814.529 -11.2026 813.716 -6.34483 811.25 -9.92656C816.727 -14.8641 825.981 -21.3733 835.234 -27.8825C844.487 -34.3917 854.036 -40.4036 860.508 -45.9323C863.866 -42.5453 855.716 -38.7101 859.471 -35.2222C856.387 -33.0525 853.1 -30.09 850.52 -29.9023C850.117 -28.3166 850.506 -26.5293 852.286 -25.2322C856.668 -29.1823 859.645 -29.2691 863.327 -32.1308C863.226 -31.7344 863.226 -31.7344 863.623 -31.6335C864.617 -32.2246 865.215 -32.9166 866.21 -33.5077C865.021 -33.8103 862.628 -31.0424 862.044 -33.7235C865.734 -38.2716 864.739 -37.6805 870.303 -39.6415C871.405 -42.3155 873.697 -44.687 872.118 -46.7769C870.129 -45.5947 867.938 -43.6197 867.254 -45.9043C870.237 -47.6776 868.558 -49.3711 872.334 -50.9427C874.107 -47.9591 878.179 -49.0335 884.449 -53.7693C884.233 -49.6036 888.406 -51.0743 892.579 -52.5451C897.256 -55.9978 893.695 -58.592 898.272 -61.6484C903.057 -67.1841 905.226 -64.0997 910.004 -67.9489C906.04 -68.9575 908.036 -71.8262 909.737 -75.1922C910.724 -74.0968 913.218 -77.261 914.205 -76.1656C912.216 -74.9834 912.108 -72.9005 914.393 -73.5855C915.899 -77.8451 916.591 -77.247 912.626 -78.2555C916.518 -83.5965 916.785 -76.3533 920.374 -80.5051C921.967 -81.7882 919.79 -83.1861 918.903 -84.6779C922.485 -87.1432 927.169 -92.2825 929.245 -90.4881C927.155 -88.9095 927.249 -87.6194 928.633 -86.4232C928.344 -88.6069 934.903 -91.1591 934.218 -93.4437C930.239 -91.0792 928.271 -94.9565 924.992 -93.6805C934.555 -103.065 943.506 -108.385 957.148 -120.531C961.912 -121.007 966.474 -120.691 972.65 -126.717C971.064 -127.12 970.487 -131.488 968.296 -129.513C964.715 -127.047 966.683 -123.17 962.92 -124.971C964.124 -128.042 969.197 -131.394 966.53 -134.183C963.539 -130.723 958.365 -126.974 958.351 -123.601C952.686 -121.244 940.154 -113.459 938.547 -108.803C931.203 -108.139 928.797 -101.998 922.03 -96.9666C921.237 -97.1683 920.747 -98.5592 919.651 -97.5717C917.85 -93.8093 910.391 -89.376 905.512 -85.1304C901.937 -84.3516 905.425 -88.107 902.543 -86.7301C901.023 -79.0975 885.816 -72.4146 880.145 -68.3707C880.75 -70.7491 879.272 -73.2354 883.351 -75.9963C886.032 -76.5804 888.014 -76.0761 890.198 -76.3647C888.72 -78.851 885.636 -76.6813 884.158 -79.1676C887.041 -80.5445 895.689 -84.6752 892.229 -87.6659C889.743 -86.1881 890.233 -84.7971 888.244 -83.6149C886.161 -83.7228 884.979 -85.7118 882.896 -85.8197C885.094 -89.4812 892.135 -88.9559 896.106 -89.6339C895.717 -91.4212 901.381 -93.7786 900.596 -95.6668C902.988 -98.4347 907.839 -95.9343 908.055 -100.1C905.266 -97.4332 902.981 -96.7482 901.799 -98.7372C906.483 -103.877 913.222 -102.162 914.23 -106.126C912.45 -107.423 908.761 -102.875 906.879 -103.776C908.587 -108.828 911.549 -105.542 915.434 -109.197C914.158 -112.476 911.772 -111.394 909.394 -111.999C915.67 -118.422 918.129 -113.154 923.8 -117.197C922.423 -120.08 918.438 -116.029 919.447 -119.993C934.372 -130.546 943.452 -143.009 954.283 -147.428C955.285 -149.706 954.996 -151.889 957.684 -154.16C959.277 -155.443 960.762 -154.643 962.254 -155.53C962.369 -159.299 967.435 -160.965 971.319 -164.619C979.088 -171.928 986.272 -181.918 995.929 -190.013C1002.4 -195.542 1008.17 -199.982 1012.46 -205.222C1013.45 -204.127 1014.73 -202.534 1016.63 -205.007C1015.24 -206.203 1014.75 -207.594 1015.05 -208.783C1020.33 -212.928 1023.52 -217.18 1026.41 -220.244C1027.71 -222.024 1029.3 -223.307 1030.5 -224.691C1031.1 -225.383 1031.99 -225.578 1032.59 -226.27C1033.58 -226.861 1034.58 -227.452 1035.57 -228.043C1033.1 -229.938 1037.08 -233.989 1040.18 -237.846C1046.73 -240.398 1053.29 -242.95 1057.75 -240.55C1060.43 -242.821 1062.33 -245.293 1064.62 -247.665C1066.91 -250.036 1068.81 -252.508 1071.4 -254.382C1068.12 -254.793 1059.96 -247.585 1062.95 -251.045C1064.04 -252.032 1067.12 -252.515 1069.92 -256.869C1072.32 -261.323 1067.14 -255.888 1066.26 -259.067C1073.51 -262.707 1079.19 -266.751 1083.26 -267.825C1082.26 -267.234 1081.96 -266.045 1083.85 -266.831C1098.26 -273.715 1115.56 -281.977 1133.05 -289.345C1150.26 -300.583 1167.94 -307.057 1182.25 -311.858C1179.87 -310.777 1182.74 -310.468 1185.62 -311.844C1184.81 -306.987 1193.84 -307.644 1193.96 -311.413C1189.98 -310.735 1183.94 -311.851 1186.03 -315.117C1195.08 -319.146 1188.1 -311.636 1194.56 -313.791C1198.54 -316.156 1191.59 -315.391 1194.78 -317.957C1211.16 -322.651 1223.38 -325.874 1236.19 -328.103C1236.59 -329.688 1237.59 -330.279 1235.21 -330.884C1242.76 -334.028 1247.81 -332.32 1252.89 -335.672C1253.07 -333.092 1255.65 -333.28 1259.33 -334.455C1258.64 -336.739 1255.77 -337.049 1253.49 -338.051C1245.95 -336.594 1235.41 -331.677 1229.76 -332.693C1236.81 -335.541 1250.31 -337.171 1258.56 -341.403C1257.95 -337.338 1262.72 -339.5 1266.8 -340.575C1270.46 -340.063 1264.6 -336.913 1270.46 -338.377C1272.15 -340.056 1269.57 -339.869 1272.65 -342.038L1288.24 -345.247C1290.92 -345.831 1290.42 -343.849 1293.1 -344.434C1298.07 -347.389 1304.73 -350.338 1315.85 -352.573L1315.96 -354.656C1324.5 -356.704 1320.51 -350.966 1330.04 -353.605C1332.44 -356.373 1340.08 -358.226 1344.85 -360.389C1339.4 -360.511 1329.96 -358.268 1321.13 -356.718C1311.4 -354.973 1298.78 -350.164 1296.71 -353.645C1303.36 -354.907 1310.51 -356.464 1318.06 -357.921C1325.71 -359.774 1333.75 -361.527 1342.19 -363.178C1358.67 -366.582 1375.15 -369.985 1388.45 -370.823C1380.88 -364.307 1395.59 -369.008 1397.26 -367.314C1386.74 -364.084 1400.23 -365.714 1391.68 -360.294C1398.93 -362.248 1394.45 -357.901 1401.3 -359.956C1412.23 -364.772 1416.81 -367.828 1423.08 -372.564C1430.42 -373.228 1438.96 -375.276 1446.61 -377.129C1454.65 -378.881 1462.2 -380.338 1467.06 -379.524C1465.47 -379.927 1458.52 -377.476 1458.91 -377.375C1461.89 -377.462 1481.26 -382.243 1476.57 -377.103C1478.96 -378.185 1481.44 -379.663 1483.83 -380.744C1485.02 -380.441 1486.41 -380.932 1487.8 -381.422C1489.29 -382.309 1490.48 -382.006 1491.77 -382.1C1491.67 -381.703 1491.97 -381.206 1492.36 -381.105C1491.06 -377.638 1489.75 -374.172 1487.86 -371.699C1489.35 -372.586 1490.84 -373.473 1492.04 -374.857C1490.92 -367.123 1486.44 -364.463 1485.02 -357.227C1492.8 -367.909 1484.37 -344.729 1483.57 -343.245C1483.78 -345.724 1482.99 -345.926 1482.1 -345.731C1480.46 -334.329 1479.31 -343.064 1476.6 -335.734C1482.67 -339.677 1474.68 -328.202 1474.17 -324.534C1476.95 -323.828 1477.72 -318.566 1473.79 -304.793C1470.02 -304.908 1469.19 -296.677 1467 -293.016C1468.88 -293.801 1470.58 -295.481 1472.08 -298.054L1468.34 -281.7C1465.65 -279.43 1461.89 -281.231 1460.58 -276.078C1457.58 -270.932 1459.87 -273.303 1458.26 -266.96C1460.43 -265.562 1464.84 -276.259 1462.32 -266.348C1459.39 -253.166 1458.65 -265.173 1456.94 -260.121L1455.22 -253.382C1458.4 -254.261 1458.52 -258.031 1459.79 -254.752L1456.05 -238.398C1454.17 -237.612 1452.48 -237.619 1451.77 -233.158C1450.25 -225.525 1457.35 -240.178 1453.73 -229.281C1453.34 -229.381 1445.78 -224.552 1447.73 -217.301C1448.74 -221.266 1450.04 -223.046 1451.23 -224.43C1446.4 -207.089 1445.28 -201.042 1441.54 -183.002C1439.83 -177.949 1439.58 -188.565 1436.57 -181.732C1435.25 -173.206 1439.74 -180.926 1440.32 -176.558C1437.09 -163.873 1432.98 -152.68 1432.84 -143.851C1431.55 -143.757 1430.36 -144.06 1430.16 -141.58C1430.03 -136.124 1429.72 -131.562 1427.82 -127.403C1426.81 -125.126 1425.42 -124.636 1424.82 -122.257C1424.11 -119.482 1424.79 -115.511 1423.49 -112.044C1422.69 -110.559 1420.8 -109.774 1420.39 -108.188C1420.39 -108.188 1420.59 -107.294 1420.78 -106.401C1420.98 -105.507 1421.07 -104.217 1421.27 -103.323C1421.15 -99.5539 1418.95 -95.8923 1418.84 -92.1229C1418.33 -90.1409 1416.95 -91.3371 1416.15 -89.8524C1418.41 -85.4778 1414.93 -83.409 1413.72 -78.652C1413.02 -75.8772 1413.71 -75.2791 1413.5 -72.7998C1412.89 -68.7348 1410.79 -65.4697 1409.78 -61.5056C1409.47 -58.6299 1410.55 -56.2444 1409.95 -53.866C1407.9 -39.1918 1403.37 -23.0399 1402.52 -8.06317C1400.04 -9.95839 1400.52 -5.19443 1399.43 -4.20692C1397.13 -1.83549 1392.87 -3.34133 1391.27 1.31472C1392.79 -6.31789 1385.92 -0.890055 1384.74 -4.56561C1384.33 -1.29348 1383.43 0.587721 1381.75 0.580697C1382.06 -3.98152 1378.99 -5.18476 1375.22 -5.29966C1369.61 -14.7477 1371.84 -26.8417 1376.57 -42.0999C1378.38 -47.5488 1379.59 -53.9922 1381.3 -59.0446C1380.02 -60.6373 1380.33 -63.513 1380.73 -65.0987C1381.54 -69.9564 1384.23 -72.227 1385.24 -76.1911C1385.64 -77.7767 1384.56 -78.4757 1385.16 -80.8542C1387.88 -91.5572 1392.2 -103.543 1394.54 -117.72C1396.64 -120.985 1396.71 -114.636 1398.91 -118.297C1399.31 -119.883 1395.25 -122.182 1398.83 -122.96C1400.1 -119.681 1403.32 -128.993 1405.41 -130.572C1402.44 -132.172 1406.63 -138.702 1401.66 -135.746C1401.97 -138.622 1403.55 -138.219 1404.75 -139.603C1405.38 -148.727 1410.67 -156.245 1409.92 -166.565C1413.3 -168.238 1412.58 -160.404 1414.38 -164.166C1413.6 -167.741 1410.43 -168.547 1411.34 -173.802C1415.2 -172.397 1411.45 -175.885 1413.55 -179.15C1416.41 -177.154 1416.93 -180.822 1418.22 -182.602C1416.74 -183.402 1416.55 -185.982 1416.36 -188.563C1416.18 -191.143 1416.48 -194.018 1416.2 -196.202C1419.17 -196.289 1420.2 -205.313 1421.61 -210.862C1426.19 -213.919 1419.99 -202.833 1423.07 -203.317C1424.1 -212.34 1427.29 -216.593 1424.93 -220.571C1427.34 -226.712 1430.43 -230.568 1432.83 -236.709C1430.45 -235.627 1430.42 -228.881 1427.35 -230.085C1430.56 -239.397 1429.8 -246.345 1431.31 -252.291C1432.82 -258.237 1433.75 -265.177 1438.53 -270.713C1438.4 -263.571 1432.02 -255.066 1433.08 -247.621C1435.17 -249.199 1438.16 -254.345 1439.37 -259.102C1441.89 -267.326 1441.62 -274.569 1444.42 -280.609C1442.25 -283.694 1445.79 -299.255 1449.41 -310.152C1449.61 -310.945 1452.61 -316.091 1453.01 -317.677C1454.42 -321.54 1454.45 -329.973 1458.23 -331.544C1461.81 -334.01 1451.83 -319.666 1456.1 -321.533C1462.77 -326.168 1457.93 -330.355 1463.02 -338.767C1459.92 -333.224 1458.64 -334.817 1460.75 -341.455C1463.65 -347.891 1464.62 -341.736 1467.83 -349.362C1464.14 -346.5 1466.16 -354.428 1464.57 -354.832C1463.68 -354.637 1462.69 -354.046 1462.09 -353.354C1461.69 -353.455 1461.3 -353.556 1460.9 -353.656L1460.5 -353.757L1460.11 -353.858C1459.31 -354.06 1458.92 -354.161 1458.52 -354.262C1457.83 -354.86 1458.03 -355.653 1456.24 -355.263C1456.24 -355.263 1454.85 -354.773 1452.96 -353.987C1451.08 -353.201 1449.19 -352.416 1447.9 -352.322C1445.22 -351.738 1442.64 -351.55 1439.96 -350.966C1438.36 -347.996 1433.79 -346.626 1431.9 -345.841C1430.51 -345.35 1427.42 -343.181 1427.93 -345.163C1430.21 -345.848 1432.2 -347.03 1433.69 -347.916C1426.25 -346.856 1421.19 -346.877 1419.01 -348.275C1428.65 -352.997 1425.85 -346.957 1435.88 -349.891C1437.77 -350.677 1447.11 -354.21 1442.84 -354.029C1439.57 -352.753 1436.29 -351.477 1432.02 -351.296C1432.32 -352.486 1432.13 -353.379 1431.04 -354.078C1413.86 -351.273 1405.22 -348.828 1388.75 -347.111C1386.85 -342.952 1380.29 -340.4 1375.11 -334.965C1356.83 -329.486 1336.66 -323.22 1322.16 -319.312C1319.49 -320.415 1315.12 -319.838 1311.35 -319.953C1309.26 -318.374 1304.1 -316.312 1298.63 -314.748C1293.17 -313.183 1287.91 -312.411 1284.93 -312.324C1285.72 -312.123 1287.02 -313.903 1284.74 -313.218C1283.64 -312.231 1282.25 -311.74 1280.86 -311.25C1279.87 -310.659 1278.47 -310.169 1277.08 -309.678C1274.3 -308.698 1271.62 -308.114 1268.94 -307.53C1263.18 -306.462 1256.53 -305.2 1250.07 -303.045C1249.48 -304.039 1249.49 -305.726 1247.7 -305.336C1243.23 -304.363 1242.72 -300.694 1236.86 -299.231C1234.18 -298.646 1230.61 -299.554 1227.83 -298.574C1227.83 -298.574 1230.5 -297.471 1228.62 -296.685C1228.62 -296.685 1226.34 -297.687 1225.05 -297.593C1215.42 -296.244 1202.88 -286.773 1190.48 -287.816C1193.47 -289.589 1202 -289.951 1199.83 -293.035C1189.4 -290.202 1189.58 -285.935 1178.36 -281.617C1175.68 -282.719 1168.75 -285.327 1167.83 -280.073C1170.12 -280.758 1172.5 -281.839 1172.79 -279.656C1165.14 -276.116 1155.7 -273.873 1149.74 -272.013C1146.96 -271.033 1143.87 -267.176 1142.49 -270.059C1144.98 -271.537 1149.74 -272.013 1147.37 -274.305C1142.31 -272.639 1141.6 -269.864 1138.91 -267.594C1137.42 -266.707 1130.36 -263.86 1134.44 -266.62C1135.94 -267.507 1138.62 -268.091 1138.13 -269.482C1133.35 -265.633 1136.06 -272.963 1132.28 -271.391C1133.16 -268.213 1121.04 -263.7 1126.19 -262.389C1122.01 -259.232 1117.24 -257.069 1112.07 -255.007C1109.69 -253.926 1106.91 -252.945 1104.42 -251.467C1101.93 -249.99 1099.55 -248.908 1097.36 -246.933C1093.49 -246.652 1097.77 -250.205 1094.39 -248.533C1091.7 -246.262 1091.09 -243.884 1085.83 -241.426C1083.84 -240.243 1083.45 -242.031 1082.06 -241.54C1079.07 -239.767 1076.88 -237.792 1074.3 -235.918C1072.1 -233.943 1069.91 -231.968 1067.53 -230.886C1065.94 -229.603 1059.98 -229.43 1062.25 -226.742C1064.53 -225.74 1068.82 -230.98 1070.6 -229.683C1066.92 -226.822 1065.32 -223.852 1068.58 -221.755C1075.56 -229.266 1085.01 -234.881 1094.34 -236.727C1103.79 -244.029 1113.85 -252.023 1128.45 -256.328C1129.43 -253.546 1134 -256.602 1133.79 -252.437C1132.69 -249.763 1122.96 -248.017 1124.23 -244.738C1130.29 -246.995 1136.77 -254.21 1143.42 -255.472C1147.09 -253.274 1138.95 -252.812 1140.63 -251.118C1145.69 -251.097 1144.32 -255.667 1144.82 -255.962C1146.51 -257.642 1149.08 -256.143 1149.09 -257.829C1148.41 -261.8 1144.02 -256.164 1141.84 -255.875C1140.95 -255.681 1138.87 -257.475 1137.98 -257.28C1135.89 -257.388 1131.22 -253.935 1132.72 -258.195C1137 -261.749 1137.98 -258.967 1140.56 -259.154C1141.06 -259.45 1144.14 -261.62 1147.62 -262.002C1150.4 -262.983 1148.43 -265.173 1152.4 -265.851C1163.03 -269.478 1179.31 -273.775 1192.33 -278.483C1204.25 -282.203 1214.2 -288.114 1222.33 -286.89C1219.66 -289.679 1232.17 -292.405 1233.55 -291.208C1227.59 -287.662 1236.62 -288.319 1239.39 -287.613C1242.16 -285.22 1235.12 -285.746 1237.79 -282.957C1240.67 -284.334 1243.75 -284.817 1245.84 -286.395C1246.33 -286.691 1245.65 -288.976 1246.25 -289.668C1249.04 -292.335 1254.19 -291.023 1254.1 -294C1248.95 -295.311 1244.07 -291.066 1241.78 -288.694C1240 -289.991 1235.72 -288.124 1235.94 -292.29C1240.21 -292.471 1239.12 -294.856 1242.6 -295.238C1244.39 -295.628 1244.38 -293.941 1246.07 -293.934C1253.22 -297.178 1259.98 -298.837 1266.63 -300.099C1270.2 -300.878 1273.78 -301.656 1277.75 -302.334C1279.53 -302.724 1281.82 -303.409 1284 -303.697C1286.29 -304.382 1288.97 -304.966 1291.25 -305.651C1293.54 -306.336 1293.03 -304.354 1294.72 -304.347C1299.89 -308.095 1300.88 -307 1307.93 -308.161C1320.34 -310.491 1336.43 -315.682 1339.1 -312.893C1344.28 -316.641 1347.84 -314.047 1353.8 -315.907C1350.8 -310.761 1357.17 -315.893 1356.76 -312.621C1356.86 -313.017 1351.98 -308.772 1355.46 -309.154C1361.12 -311.512 1361.01 -309.429 1365.79 -313.278C1368.29 -318.129 1356.85 -309.644 1359.45 -314.892C1368.38 -316.839 1371.27 -318.215 1378.91 -318.382C1379.21 -319.571 1377.62 -319.975 1382.09 -320.948C1386.55 -320.235 1377.02 -317.596 1377.21 -315.016C1381.87 -315.096 1375.1 -310.065 1376.79 -310.057C1381.16 -312.321 1380.97 -313.215 1382.07 -315.889C1386.04 -316.567 1389.52 -316.949 1391.41 -319.421C1386.94 -318.448 1382.97 -317.77 1387.35 -321.72C1391.92 -323.09 1392.21 -320.906 1395.68 -321.289C1399.55 -321.57 1408.4 -326.494 1406.01 -322.039C1401.04 -320.77 1393.7 -321.793 1391.99 -316.74C1399.74 -318.99 1407.29 -320.447 1412.94 -319.431C1413.05 -323.2 1418.1 -319.806 1424.46 -323.252C1427.24 -322.546 1417.49 -317.428 1420.07 -317.616C1421.26 -317.313 1422.16 -317.508 1423.15 -318.099C1423.65 -318.394 1424.05 -318.294 1424.54 -318.589C1424.94 -318.488 1424.94 -318.488 1425.44 -318.784C1426.33 -318.979 1427.82 -319.865 1428.02 -318.972C1427.92 -318.575 1427.71 -317.782 1427.31 -316.197C1425.5 -310.748 1423.34 -315.519 1422.72 -309.767C1423.51 -307.879 1428.3 -316.788 1428.49 -312.521C1428.99 -314.503 1429.89 -316.384 1431.98 -317.963C1430.07 -312.118 1430.24 -304.478 1426.84 -299.433C1423.57 -299.843 1432.16 -313.696 1427.38 -309.847C1426.46 -302.906 1424.06 -296.766 1419.08 -292.124C1417.94 -282.704 1415.24 -275.374 1413.8 -264.764C1414.8 -265.355 1415.6 -266.84 1416.59 -267.431C1414.18 -259.604 1415.96 -258.307 1413.65 -250.876C1415.24 -252.159 1416.24 -254.437 1417.83 -255.72C1417.03 -252.548 1416.22 -249.377 1415.81 -246.105C1413.13 -247.207 1410.24 -244.144 1408.63 -237.801L1414.19 -239.763C1413.29 -236.195 1412.27 -230.544 1410.96 -225.391C1409.95 -221.427 1409.62 -213.492 1406.35 -213.902C1406.87 -219.257 1411.08 -229.16 1409.4 -230.854C1406.68 -221.837 1405.81 -228.389 1405.33 -231.466C1399.46 -226.629 1402.64 -227.509 1402.12 -222.154C1401.91 -219.675 1400.12 -219.285 1400.6 -216.208L1403.69 -218.377C1403.47 -214.212 1403.36 -210.442 1403.04 -205.88C1400.15 -201.13 1400.78 -210.255 1398.88 -206.096C1398.05 -197.865 1398.83 -194.29 1400.3 -190.118C1400.49 -189.224 1402.49 -192.093 1402.78 -191.595C1403.38 -190.601 1400.98 -186.146 1401.17 -185.253C1397.9 -185.663 1399.31 -191.213 1396.74 -192.712C1395.92 -187.854 1393.05 -189.85 1392.93 -184.394C1395.02 -184.286 1394.54 -189.05 1396.82 -188.049C1398.09 -184.769 1394.52 -183.991 1393.91 -179.926C1395.1 -179.623 1395.6 -181.605 1397.08 -180.805C1395.09 -177.937 1395.87 -174.362 1394.96 -170.794C1394.05 -167.227 1391.36 -163.27 1390.45 -159.702C1389.44 -155.738 1392.3 -152.055 1389.12 -149.489C1389.12 -151.176 1388.34 -153.064 1387.44 -151.183C1385.13 -145.438 1390 -146.311 1388.09 -140.466C1383.52 -139.096 1385.15 -148.811 1381.95 -144.559C1381.05 -140.991 1384.32 -142.267 1385.21 -140.775C1385.9 -140.177 1384.4 -135.917 1387.28 -137.294C1386.06 -129.164 1381.98 -128.09 1380.57 -120.854L1383.34 -120.148C1381.52 -111.326 1381.42 -110.929 1381.79 -104.083C1379.29 -100.918 1376.65 -108.767 1374.24 -102.626C1373.43 -99.4547 1373.92 -98.0637 1376.01 -97.9559C1377.5 -100.529 1374.44 -103.419 1377.42 -103.506C1377.4 -100.133 1379.97 -96.9473 1382.66 -99.2179C1379.76 -94.468 1381.43 -89.4015 1378.64 -86.7345C1378.64 -88.421 1377.46 -88.7236 1376.17 -88.6297C1373.56 -83.3826 1374.43 -76.8313 1369.85 -73.7749C1370.36 -75.757 1367.48 -76.0665 1367.08 -74.4809C1366.57 -72.4989 1367.76 -72.1963 1367.16 -69.8178C1369.34 -70.1064 1369.85 -73.7749 1371.53 -70.3949C1367.72 -62.0773 1371.46 -55.2165 1366.27 -46.4086C1368.75 -46.1999 1370.13 -45.0037 1369.22 -41.436C1368.72 -39.454 1367.33 -40.6502 1366.53 -39.1654C1365.2 -28.9526 1362.1 -23.4099 1362.86 -14.7757C1360.08 -13.7952 1359.36 -7.64737 1358.05 -2.49407C1357.15 -0.612874 1357.42 4.94388 1355.44 4.4396C1355.76 -0.122614 1359.36 -7.64737 1357.78 -9.7373C1353.5 -6.18364 1352.86 4.62726 1354.73 8.90096C1353.13 11.8705 1348.03 20.2819 1351.49 23.2725C1352.2 20.4977 1353.83 9.09565 1354.81 13.564C1353.2 18.2201 1351.25 34.1843 1349.99 25.8457C1349.08 31.0999 1344.09 37.4284 1345.66 41.2048C1348.83 43.6981 1349.29 28.6205 1350.66 33.1898L1347.83 45.9757C1345.74 45.8679 1346.25 43.8858 1344.17 43.778C1345.04 48.6427 1338.78 51.6921 1342.13 56.7656C1345.9 55.194 1341.57 47.3386 1345.93 48.448C1347.71 49.7451 1344.71 56.5779 1344.3 59.8501C1341.92 59.2449 1338.85 58.0417 1337.94 61.6094C1337.93 64.9823 1338.21 68.8526 1338.59 72.3264C1341.27 73.4288 1340.69 67.3748 1342.88 67.0863C1341.37 73.0324 1340.34 80.3695 1337.36 82.1428C1338.45 82.8418 1338.94 84.2327 1338.33 86.6112C1333.39 82.8208 1334.33 94.0351 1330.56 93.9202C1330.58 90.5472 1330.82 81.3219 1326.33 85.6684C1328.59 91.7294 1329.65 99.1744 1332.01 104.839C1335.69 101.977 1329.87 95.0086 1335.72 93.5449C1334.02 98.5973 1334.6 101.278 1335.58 104.06C1331.41 105.531 1333.54 118.734 1329.35 123.578C1326.27 125.748 1328.88 117.128 1326.88 121.683C1326.76 125.452 1326.65 129.222 1327.53 132.4C1326.82 135.175 1325.23 136.458 1324.13 139.132C1321.42 144.776 1324.42 141.316 1323.5 146.57C1322.88 152.321 1319.41 151.017 1318.99 157.662C1321.88 154.599 1321.26 160.35 1323.14 161.251C1323.03 165.02 1317.66 166.189 1320.23 169.374C1324.01 166.116 1322.95 158.671 1325.45 155.507C1325.54 156.797 1326.71 162.159 1327.52 158.987C1325.64 158.087 1328.73 152.544 1327.25 151.744C1330.03 150.764 1329.3 158.598 1331.7 154.144C1333.61 148.298 1329.74 148.58 1332.15 142.439C1332.75 140.061 1334.83 141.855 1334.84 138.482C1333.55 138.576 1332.26 140.356 1333.16 136.789C1334.19 129.451 1340.02 134.734 1341.24 128.29C1338.36 127.981 1339.86 125.407 1337.27 127.282C1340.17 122.532 1338.5 117.465 1340.89 114.697C1342.87 116.888 1347.87 107.187 1352.23 108.296C1353.7 112.469 1350.03 113.644 1348.92 118.005C1351.89 119.604 1350.08 125.053 1353.15 126.256C1352.37 122.682 1351.77 123.374 1353.77 118.818C1357.65 118.537 1353.25 125.86 1357.12 125.579L1358.54 118.342C1354.96 119.121 1355.87 115.553 1356.78 111.986C1360.25 113.29 1358.24 119.532 1359.51 122.811C1358.22 122.904 1358.11 124.987 1357.61 126.969C1353.16 124.57 1352.04 130.617 1349.45 132.491C1352.03 133.99 1356.67 138.97 1352.18 143.316C1353.79 138.66 1349.53 137.154 1348.52 141.118C1349.21 143.403 1351.59 144.008 1352.27 146.293C1349.99 146.978 1348.58 150.841 1346.89 152.52C1343.03 151.115 1343.75 144.968 1340.98 142.575C1338.69 144.946 1337.97 151.094 1342.43 150.121C1342.02 153.393 1340.04 152.889 1339.83 157.054C1341.41 157.458 1342.7 157.364 1343.8 156.377C1344.38 159.058 1339.81 160.427 1342.39 161.926C1342.8 156.968 1344.97 160.052 1345.56 161.047C1346.17 158.668 1346.38 156.189 1348.26 157.09C1348.13 164.232 1344.45 167.094 1343.45 169.371C1341.34 174.323 1342.52 176.312 1339.84 176.896C1344.01 177.112 1341.08 188.608 1339.19 191.08C1339.2 189.393 1340.1 187.512 1338.91 187.21C1336.51 189.977 1338.39 192.565 1338.28 194.648C1338.27 196.334 1337.97 197.523 1337.57 199.109C1337.56 200.795 1337.06 202.777 1336.95 204.86C1336.44 208.529 1335.43 212.493 1334.82 216.558C1333.2 224.587 1331.18 232.515 1329.16 240.443C1328.56 242.822 1329.04 245.899 1328.93 247.982C1327.11 256.804 1324.39 267.507 1322 268.588C1323.16 277.323 1316.66 287.912 1315.55 292.272C1314.85 295.047 1314.83 298.42 1314.03 301.591C1313.32 304.366 1312.03 304.46 1311.32 307.235C1310.82 309.217 1312.01 309.519 1311.01 311.797C1310.91 312.193 1308.22 314.464 1307.92 315.653C1307.41 317.635 1306.7 322.097 1306.39 324.972C1305.89 326.954 1306.76 330.133 1306.06 332.908C1305.25 336.079 1302.16 339.935 1301.05 344.295C1300.55 346.278 1301.34 346.479 1300.63 349.254C1300.13 351.236 1298.83 353.017 1297.54 354.797C1296.24 356.577 1294.94 358.357 1294.44 360.34C1293.03 364.203 1291.03 368.758 1288.92 373.71C1286.82 378.661 1284.42 383.116 1282.52 387.274C1280.92 390.244 1280.91 393.617 1279.41 396.19C1278.41 398.468 1273.52 404.4 1273.32 405.193C1272.01 408.659 1271.11 410.541 1268.32 413.208C1271 412.624 1271.48 417.387 1268.71 416.681C1269.01 415.492 1268.81 414.599 1267.62 414.296C1266.52 416.97 1264.84 416.963 1263.83 419.241C1265.02 419.543 1265.82 418.058 1267.21 419.255C1266.4 422.426 1264.22 421.028 1263.42 422.513C1260.53 427.263 1252.53 442.11 1250.33 445.772C1248.13 449.433 1244.45 452.295 1241.96 455.459C1240.76 456.843 1240.55 459.323 1240.35 460.115C1238.56 462.191 1234.98 462.97 1233.58 465.147C1233.68 464.75 1233.47 468.916 1232.77 470.005C1229.27 477.133 1225.4 477.415 1223.01 480.182C1221.81 481.566 1221.1 484.341 1219.11 487.21C1217.01 490.475 1213.33 493.337 1211.53 495.413C1210.34 496.796 1210.93 497.791 1209.23 499.471C1204.65 504.213 1196.97 514.499 1189.7 521.512C1183.82 528.036 1179.13 533.175 1178.64 533.471C1172.17 538.999 1169.48 539.583 1174.47 533.255C1170.99 535.324 1167.6 538.683 1164.32 541.645C1162.62 543.325 1160.93 545.004 1159.24 546.684C1157.54 548.363 1155.45 549.942 1153.36 551.52C1149.68 554.382 1146 555.557 1142.82 558.123C1137.05 562.564 1130.38 567.199 1123.61 572.23C1116.85 577.262 1109.78 581.796 1103.12 586.431C1096.45 591.066 1089.59 594.807 1084.02 598.455C1078.45 602.102 1073.08 604.957 1069.6 607.026C1068.51 606.327 1066.93 605.923 1065.64 606.017C1058.28 610.054 1052.01 613.103 1048.92 616.96C1048.33 615.965 1047.94 614.178 1046.05 614.963C1043.86 618.625 1039.89 617.616 1035.02 620.176C1031.24 621.747 1035.7 624.147 1030.73 625.416C1030.14 624.421 1029.55 623.427 1027.06 624.904C1024.18 626.281 1026.26 628.076 1022.19 629.15C1019.42 626.758 1015.83 630.909 1013.44 631.991C1008.77 633.757 1002.22 636.309 995.261 638.76C988.407 640.815 981.849 643.367 977.575 645.235C973.301 647.102 969.135 646.886 964.069 648.551C962.282 648.941 962.375 650.231 960.091 650.916C955.623 651.889 951.954 651.378 948.077 653.346C945.295 654.327 946.873 656.417 942.607 656.597C938.246 655.488 933.187 655.467 928.127 655.446C933.295 653.384 928.941 650.588 926.664 649.586C930.937 647.719 933.135 644.058 938.598 642.493C941.776 641.613 945.243 642.918 947.239 640.049C941.985 639.134 937.423 638.817 932.544 643.063C929.481 640.173 935.83 640.101 933.956 637.513C928.493 639.078 928.58 642.055 931.348 644.447L928.566 645.428C927.672 645.622 926.778 645.817 925.885 646.012C926.591 643.237 931.073 638.89 926.518 636.887C929.3 635.907 931.188 635.121 931.591 633.535C928.91 634.119 929.818 630.552 926.539 631.828C917.999 633.876 909.458 635.923 900.918 637.971C892.479 639.623 884.832 641.476 877.884 642.241C877.091 642.039 876.299 641.837 876.003 641.34C874.713 641.434 873.322 641.924 872.032 642.018C871.333 643.106 871.131 643.899 869.639 644.786C866.36 646.062 865.87 644.671 864.983 643.179C863.693 643.273 862.302 643.763 860.616 643.756C858.922 645.436 857.33 646.719 853.459 647C852.27 646.698 850.785 645.898 849.301 645.098C847.513 645.487 845.43 645.379 843.247 645.668C843.146 646.064 843.146 646.064 842.649 646.36C844.832 646.071 848.011 645.192 848.501 646.583C845.027 646.965 844.523 648.947 839.96 648.631C839.766 647.737 839.672 646.447 838.879 646.245C837.985 646.44 837.092 646.635 836.299 646.433C836.595 646.93 836.89 647.427 837.186 647.925C834 650.491 829.842 648.589 825.474 649.166C828.544 650.369 823.471 653.721 828.927 653.843C833.2 651.976 840.047 651.607 846.202 650.641C848.567 654.619 836.177 651.889 836.264 654.865C837.453 655.168 838.246 655.37 837.943 656.559C841.33 653.2 843.003 656.58 846.873 656.298C848.768 653.826 849.561 654.028 847.687 651.441C851.363 650.265 861.395 647.331 865.157 649.132C861.683 649.515 859.795 650.3 859.788 651.987C861.871 652.095 863.752 652.995 865.835 653.103C864.754 650.718 868.328 649.939 871.009 649.355C878.743 650.478 886.101 646.441 892.04 649.641C894.613 651.14 893.007 655.796 897.864 656.61C895.183 657.194 893.194 658.376 892.394 659.861C897.857 658.296 898.24 661.77 902.009 661.885C904.69 661.301 909.864 657.552 912.337 659.447C908.546 664.392 898.139 662.166 892.784 661.648L893.462 665.619C886.413 666.78 882.039 669.044 876.078 670.904C872.41 670.393 868.741 669.881 864.972 669.767C841.138 675.521 815.935 676.705 794.421 673.342C792.136 674.027 790.644 674.914 788.756 675.7C783.408 673.495 774.082 673.654 767.826 675.017C764.259 674.11 762.284 671.919 757.123 672.294C756.821 673.483 763.163 675.097 758.695 676.071C757.614 673.685 752.85 674.161 749.678 673.355L749.765 676.331C741.931 675.604 731.624 672.982 726.053 676.629C725.462 675.635 724.475 674.54 722.99 673.74C716.042 674.504 704.049 671.875 693.433 672.129C693.037 672.028 690.846 674.003 690.449 673.902C686.378 674.976 681.822 672.973 680.129 674.653C680.223 675.943 682.803 675.755 682.998 676.649C676.05 677.413 675.963 674.437 672.496 673.133C672.785 675.317 671.293 676.203 668.021 675.793C664.547 676.175 663.862 673.891 660.59 673.48C658.111 673.271 654.233 675.239 651.358 674.93C647.689 674.418 648.092 672.833 643.927 672.617C643.725 673.41 642.831 673.605 640.748 673.497C640.842 674.787 643.12 675.788 640.439 676.373C625.087 670.356 596.806 672.024 575.493 667.868C567.464 666.248 556.654 665.607 547.334 664.081C546.253 661.695 532.97 659.16 539.997 663.058C532.076 659.354 523.536 661.402 513.626 658.881C513.438 656.301 510.368 655.097 506.901 653.793C506.699 654.586 505.409 654.68 505.207 655.473C504.804 657.058 509.07 656.878 509.164 658.168C502.022 658.039 500.544 655.553 497.776 653.16C493.589 658.004 476.753 651.188 466.936 649.957C465.25 649.949 458.114 648.134 462.777 648.054C465.257 648.263 469.711 650.662 468.831 647.484C460.399 647.449 461.401 645.172 454.863 642.664C454.38 639.587 456.96 639.399 457.565 637.021C455.583 636.516 455.59 634.83 453.608 634.326C438.84 630.99 424.072 627.655 409.405 623.923C409.03 618.763 416.944 624.153 417.246 622.964C416.669 618.596 411.3 621.451 405.952 619.246L404.944 623.21L399.394 621.798C396.72 620.696 401.981 619.924 397.325 618.318C394.449 618.008 392.064 619.089 390.767 620.87C383.927 619.552 382.738 619.249 374.709 617.628C374.226 614.551 377.202 614.464 377.706 612.482L372.157 611.07C369.295 607.387 380.812 605.253 371.601 601.643C372.4 600.158 373.892 599.272 375.088 597.888C336.543 586.815 313.76 578.486 313.76 578.486C313.76 578.486 335.671 462.504 386.447 347.536C387.636 347.839 386.044 349.122 383.665 348.517Z" fill="url(#paint0_linear_447_37417)"/>
<mask id="mask0_447_37417" style="mask-type:alpha" maskUnits="userSpaceOnUse" x="313" y="-383" width="1180" height="1060">
<path d="M383.665 348.516C389.741 342.887 386.712 331.565 393.371 328.616C393.156 332.782 390.381 332.076 394.943 332.393C395.743 330.908 396.045 329.719 396.845 328.234C397.349 326.252 394.474 325.942 397.464 322.482C398.25 324.371 399.446 322.987 400.145 321.898C400.844 320.81 401.046 320.017 401.745 318.929C400.152 320.212 398.761 320.702 398.17 319.707C399.871 316.341 397.99 315.441 399.589 312.471C401.492 308.313 405.57 305.552 409.145 304.773C411.545 300.318 413.944 295.864 416.445 291.013C415.652 290.812 414.859 290.61 413.468 291.1C414.873 287.237 411.795 287.72 413.496 284.354C414.195 283.266 416.473 284.267 417.179 281.492C418.382 278.422 415.607 277.716 418.302 273.759C420.788 272.281 422.684 269.809 425.358 270.911C424.342 276.562 422.158 276.851 417.971 281.694C419.355 282.89 419.953 282.199 421.049 281.211C428.146 268.244 435.936 255.876 444.021 244.005L443.524 244.3C440.93 247.861 438.336 251.422 435.366 249.822C437.275 243.977 439.445 247.061 441.643 243.399C443.141 240.826 440.266 240.517 443.156 237.453C444.345 237.756 445.231 239.248 446.428 237.864C447.544 231.817 450.514 233.416 453.807 228.767L451.234 227.269C449.137 230.534 446.838 234.592 444.561 233.59C446.873 226.159 449.245 228.451 453.835 222.021C452.357 219.535 456.047 214.987 459.023 214.9C456.141 216.277 456.711 222.331 456.307 223.917C456.408 223.52 454.722 223.513 454.52 224.306C454.614 225.596 454.808 226.49 455.5 227.088C456.797 225.308 458.095 223.527 459.291 222.143C458.995 221.646 459.197 220.853 460.79 219.57C460.79 219.57 461.186 219.671 461.085 220.067C464.775 215.519 468.464 210.971 472.154 206.423C470.273 205.522 472.759 204.044 473.66 202.163C473.761 201.767 472.773 200.671 472.975 199.879C473.775 198.394 475.865 196.815 476.664 195.33C476.866 194.538 476.692 188.585 480.058 190.285C477.457 195.532 483.337 189.009 484.325 190.104C483.626 191.193 483.323 192.382 483.914 193.376C487.9 189.326 491.986 184.878 495.87 181.224C493.102 178.831 497.087 174.78 493.426 172.583C500.985 167.753 495.839 164.755 502.505 160.12C504.394 159.334 505.172 162.909 507.363 160.934C509.856 157.77 512.054 154.108 516.731 150.655C519.03 146.598 512.795 142.901 520.752 138.172C524.615 139.577 517.646 145.401 523.109 143.837C524.608 141.264 526.899 138.892 525.422 136.406C528.607 133.84 533.277 132.073 532.196 129.688C529.313 131.065 527.619 132.744 526.027 134.027C524.434 135.31 523.043 135.801 520.859 136.089C528.023 131.159 536.08 126.033 542.739 123.085C545.124 122.004 545.817 122.602 549.391 121.823C549.391 121.823 554.565 118.074 554.256 120.95C553.456 122.435 548.988 123.408 551.359 125.7C552.75 125.21 553.442 125.808 554.833 125.318C558.213 123.645 555.942 120.957 560.613 119.191C562.487 121.778 557.319 123.84 557.111 126.319C561.276 126.535 564.959 123.673 566.263 120.206C567.769 115.947 565.867 120.106 569.24 120.12C571.82 119.932 576.295 117.272 572.036 115.766C576.014 113.402 575.301 117.863 578.284 116.09C581.664 114.417 586.133 113.444 585.448 111.159C585.563 107.39 574.421 114.685 577.808 111.326C584.964 108.082 591.523 105.53 597.584 103.273C603.645 101.016 608.517 98.4573 612.992 95.7973C614.275 97.39 616.956 96.8059 618.441 97.6057C616.935 101.865 609.007 99.8483 609.295 102.032C613.166 101.751 610.168 106.897 612.553 105.815C615.84 102.853 621.8 100.993 622.499 99.9044C619.926 98.4056 613.395 94.2117 621.64 91.6666C623.32 93.3601 620.04 94.6362 622.513 96.5314C627.976 94.9668 632.74 94.4906 635.507 96.8831C635.327 92.6164 644.378 86.9 651.031 85.638C649.358 82.2579 656.709 79.9076 655.93 76.3329C651.57 75.2235 646.994 78.2799 641.826 80.3417C637.553 82.2089 632.493 82.1878 629.214 83.4639C622.259 85.9152 614.498 91.5377 606.152 94.4792C603.37 95.4597 600.091 96.7358 596.416 97.911C593.136 99.187 589.461 100.362 586.283 101.242C579.724 103.794 573.663 106.051 570.283 107.723C570.888 105.345 563.833 108.192 562.838 108.783C562.838 108.783 564.619 110.08 565.015 110.181C558.846 114.521 542.357 119.611 548.647 109.816C551.819 110.622 557.584 107.869 560.755 108.676C560.762 106.989 562.254 106.102 560.575 104.409C550.838 107.841 552.525 107.848 544.676 110.494C544.864 113.074 545.65 114.962 543.452 118.623C539.272 121.781 539.387 118.011 536.108 119.287C531.733 121.551 527.258 124.211 523.28 126.575C519.302 128.94 515.821 131.009 512.744 131.492C510.25 134.656 506.668 137.121 503.88 139.788C500.694 142.355 497.509 144.921 493.927 147.386C492.335 148.669 490.446 149.455 488.854 150.738C487.261 152.021 485.769 152.908 484.177 154.191C481.092 156.36 478.404 158.631 476.113 161.003C483.088 153.492 475.247 154.451 471.686 151.857C475.772 147.41 477.639 151.683 482.028 146.047C481.249 142.472 480.874 137.312 475.599 141.457C476.586 142.552 477.48 142.357 478.77 142.263C474.684 146.711 470.598 151.158 467.903 155.115C464.811 158.971 463.306 163.231 461.901 167.094C463.89 165.912 465.987 162.647 467.781 160.571C469.676 158.099 472.163 156.621 475.233 157.824C468.365 163.252 473.432 161.587 472.034 163.763C472.134 163.367 469.749 164.448 469.05 165.537C467.854 166.921 468.041 169.501 467.342 170.589C464.352 174.049 459.278 177.401 454.998 180.955C455.798 179.47 456.403 177.091 454.414 178.274C445.939 188.357 438.769 194.974 431.894 202.089C425.019 209.203 418.634 217.708 410.845 230.077C408.661 230.365 406.571 231.944 404.193 231.339C407.103 223.216 412.552 225.024 411.081 220.852C413.171 219.273 414.938 223.943 417.042 218.991C415.852 218.689 413.762 220.267 414.468 217.493C417.445 217.406 420.356 209.283 423.246 206.22C418.179 207.885 425.941 202.262 427.151 197.506C429.616 201.087 432.52 194.651 434.898 195.256C438.494 189.418 430.242 193.649 433.636 188.604C437.607 187.926 436.397 192.683 441.276 188.437C443.373 185.172 439.826 179.205 445.974 179.925C442.292 182.787 443.164 187.651 445.355 185.676C449.34 181.625 444.98 180.516 448.965 176.465C451.855 173.402 458.788 176.01 459.703 170.756C457.015 173.026 454.73 173.711 452.352 173.106C456.048 166.871 459.825 165.3 465.013 158.179C463.334 156.485 465.128 154.409 462.158 152.81C469.235 144.902 476.903 137.99 481.976 134.638C488.642 130.003 492.642 122.579 497.398 123.789C493.219 126.946 489.435 130.204 485.255 133.362C489.421 133.577 485.45 134.255 484.139 139.409C483.736 140.994 483.829 142.284 483.426 143.87C484.716 143.776 490.979 140.727 489.797 138.738C487.908 139.524 486.02 140.309 484.73 140.403C490.51 134.276 491.879 138.846 496.355 136.186C497.551 134.802 500.037 133.324 501.63 132.041C503.619 130.859 504.815 129.475 502.934 128.574C510.689 124.638 518.551 118.619 524 120.428C525.6 117.458 525.614 114.085 528.503 111.022C530.983 111.23 531.963 114.012 536.539 110.956C539.429 107.892 538.946 104.815 545.901 102.364C546.888 103.459 546.679 105.938 548.964 105.253C552.841 103.285 555.018 104.683 557.8 103.703C559.191 103.213 559.393 102.42 559.493 102.023C559.695 101.231 560.293 100.539 560.79 100.243C561.187 100.344 564.056 102.34 563.767 100.156C562.88 98.6644 560.192 100.935 560.005 98.3548C565.367 97.1866 562.801 94.0013 568.163 92.8331C569.042 96.0114 574.317 91.8667 577.193 92.1762C576.703 90.7853 578.094 90.295 577.207 88.8032C574.238 87.2036 572.328 93.0488 569.063 90.9519C572.833 91.0668 571.463 86.4977 569.077 87.579C566.49 89.4531 565.885 91.8316 560.919 93.1006C561.806 94.5924 560.113 96.2719 558.729 95.0757C561.518 92.4087 559.744 89.4251 554.772 92.3807C556.74 96.2579 553.353 99.6168 549.966 102.976C542.931 100.764 555.644 97.2454 551.298 92.763C543.154 94.9117 544.819 99.9782 538.571 99.6546C537.072 102.228 538.449 105.111 534.766 107.972C532.683 107.864 530.997 107.857 528.813 108.146C528.013 109.631 523.538 112.291 519.66 114.259C515.783 116.227 513.592 118.202 516.865 118.612C512.584 122.166 511.704 118.987 508.223 121.056C504.245 123.421 501.161 125.591 498.574 127.465C495.986 129.339 493.796 131.314 490.322 131.696C491.532 126.939 496.988 127.061 499.777 124.394C500.375 123.702 497.903 121.807 501.477 121.028C503.258 122.325 500.771 123.803 500.368 125.389C506.234 122.239 506.443 119.759 504.965 117.273C506.853 116.487 508.446 115.204 510.334 114.418C512.323 113.236 514.312 112.054 516.302 110.872C520.676 108.608 525.151 105.948 529.627 103.288C531.011 104.484 528.719 106.856 531.105 105.774C535.976 103.215 532.019 100.52 535.104 98.3505C540.466 97.1823 547.622 93.9382 553.885 90.8889C558.656 88.7261 563.03 86.4625 565.409 87.0676C563.917 87.9544 561.733 88.2429 561.827 89.533C567.586 88.4656 566.605 85.6837 569.985 84.0113C575.75 81.2574 579.419 81.7687 583.787 81.1917C583.296 79.8007 582.013 78.208 585.192 77.3284C590.453 76.5566 585.278 80.305 588.255 80.2182C589.646 79.7279 589.941 80.2252 591.232 80.1313C592.031 78.6466 590.056 76.4558 593.631 75.677C602.38 71.1499 606.734 73.9458 613.883 72.3882C613.299 69.7071 618.473 65.9588 613.219 65.0441C615.403 64.7556 619.287 61.101 620.073 62.9892C618.278 65.0651 614.877 71.7971 620.737 70.3333C618.379 64.6687 630.286 64.3214 631.899 57.9789C629.413 59.4566 627.727 59.4496 626.941 57.5614C631.913 54.6058 634.688 55.3118 639.762 51.9599C641.852 50.3812 640.669 48.3922 644.842 46.9214C647.704 50.604 653.563 49.1403 658.724 48.7649C657.729 49.356 657.527 50.1489 658.515 51.2442C663.394 46.9986 663.07 53.2473 667.351 49.6937C667.365 46.3206 664.179 48.8868 662.796 47.6906C671.934 44.9507 678.319 36.4455 685.058 38.16C683.854 41.2304 680.582 40.82 677.699 42.197C676.993 44.9718 678.471 47.4581 675.682 50.1251C673.008 49.0227 677.094 44.5753 673.419 45.7506C667.156 48.7999 665.355 52.5624 661.074 56.116C664.729 60.0003 670.925 48.9148 673.787 52.5974C664.144 57.3193 675.957 55.6819 673.161 60.0353C672.57 59.0408 670.184 60.1222 670.675 61.5131C673.933 65.2966 675.554 57.2675 677.233 58.961C675.035 62.6226 674.531 64.6046 668.174 66.3639C668.658 69.4414 662.2 71.597 663.08 74.7753C665.761 74.1912 668.744 72.4179 670.229 73.2177C666.842 76.5767 661.292 75.1647 661.48 77.7448C661.762 81.6151 667.736 76.3819 668.435 75.2936C669.314 78.4719 672.493 77.5922 675.476 75.8189C675.981 73.8369 678.669 71.5663 678.777 69.4834C676.189 71.3576 673.905 72.0425 673.018 70.5507C676.6 68.0854 678.178 70.1753 681.659 68.1064C681.068 67.1119 680.974 65.8218 683.259 65.1369C687.519 66.6427 688.131 62.5778 691.309 61.6982C692.203 61.5035 693.19 62.5988 694.581 62.1086C694.581 62.1086 695.684 59.4346 697.276 58.1515C699.863 56.2773 703.741 54.3093 707.221 52.2404C711.2 49.876 718.06 46.1346 721.131 47.3379C719.041 48.9165 714.472 50.2864 717.441 51.8861C720.72 50.61 719.142 48.5201 723.214 47.4458C727.682 46.4723 725.679 51.0275 728.656 50.9407C725.592 48.0509 733.736 45.9022 734.046 43.0265C738.024 40.6621 744.165 43.0686 746.269 38.117C742.882 41.4759 742.204 37.5048 739.818 38.5861C734.254 40.5472 731.667 42.4214 727.387 45.975C726.003 44.7788 722.219 48.0369 721.736 44.9594C732.366 41.333 744.913 30.1747 752.163 28.2208C751.673 26.8298 754.159 25.352 754.858 24.2637C757.136 25.2652 760.126 21.8054 762.613 20.3276C764.602 19.1454 769.272 17.3792 770.367 16.3916C770.864 16.0961 770.576 13.9123 771.57 13.3212C779.627 8.19594 789.371 3.07764 799.215 -2.43702C800.7 -1.63718 800.881 2.62943 803.072 0.654388C804.369 -1.12591 803.187 -3.11498 806.17 -4.8883C808.549 -4.28317 804.463 0.164172 808.34 -1.80381C807.749 -2.79837 807.158 -3.79288 809.543 -4.87426C816.894 -7.22467 819.69 -11.5781 824.965 -15.7229C825.463 -16.0184 826.551 -15.3194 827.747 -16.7034C828.345 -17.3953 828.749 -18.981 829.642 -19.1757C830.14 -19.4712 832.41 -16.7832 834.507 -20.0483C836.1 -21.3314 833.923 -22.7294 836.806 -24.1063C840.791 -28.1572 841.065 -22.6004 844.452 -25.9594C843.674 -29.5341 850.239 -33.7727 852.04 -37.5351C842.088 -29.9375 826.37 -19.5861 816.519 -12.385C814.53 -11.2028 813.716 -6.34501 811.251 -9.92674C816.728 -14.8643 825.981 -21.3735 835.234 -27.8827C844.488 -34.3919 854.036 -40.4038 860.508 -45.9325C863.867 -42.5455 855.716 -38.7103 859.471 -35.2224C856.387 -33.0527 853.101 -30.0901 850.521 -29.9024C850.117 -28.3168 850.506 -26.5295 852.287 -25.2324C856.668 -29.1824 859.645 -29.2693 863.327 -32.131C863.227 -31.7346 863.227 -31.7346 863.623 -31.6337C864.618 -32.2248 865.216 -32.9168 866.21 -33.5079C865.021 -33.8104 862.629 -31.0426 862.044 -33.7236C865.734 -38.2718 864.739 -37.6807 870.303 -39.6417C871.406 -42.3157 873.697 -44.6872 872.119 -46.7771C870.13 -45.5949 867.939 -43.6198 867.254 -45.9045C870.237 -47.6778 868.558 -49.3713 872.334 -50.9429C874.108 -47.9593 878.18 -49.0337 884.449 -53.7695C884.234 -49.6037 888.406 -51.0745 892.579 -52.5452C897.256 -55.998 893.696 -58.5922 898.272 -61.6486C903.057 -67.1843 905.227 -64.0999 910.005 -67.9491C906.04 -68.9577 908.037 -71.8263 909.737 -75.1923C910.725 -74.0969 913.218 -77.2612 914.205 -76.1658C912.216 -74.9836 912.108 -72.9007 914.393 -73.5856C915.899 -77.8453 916.591 -77.2472 912.627 -78.2557C916.518 -83.5967 916.786 -76.3535 920.374 -80.5053C921.967 -81.7883 919.79 -83.1863 918.904 -84.6781C922.485 -87.1434 927.169 -92.2827 929.245 -90.4883C927.155 -88.9097 927.249 -87.6196 928.633 -86.4234C928.345 -88.6071 934.903 -91.1592 934.218 -93.4439C930.24 -91.0794 928.272 -94.9567 924.993 -93.6806C934.556 -103.066 943.506 -108.386 957.148 -120.531C961.912 -121.007 966.474 -120.691 972.65 -126.717C971.065 -127.12 970.487 -131.488 968.297 -129.513C964.715 -127.047 966.683 -123.17 962.921 -124.972C964.124 -128.042 969.197 -131.394 966.53 -134.183C963.54 -130.723 958.365 -126.975 958.351 -123.602C952.687 -121.244 940.154 -113.459 938.548 -108.803C931.204 -108.139 928.797 -101.998 922.03 -96.9668C921.237 -97.1685 920.747 -98.5594 919.652 -97.5719C917.85 -93.8095 910.391 -89.3762 905.512 -85.1306C901.938 -84.3518 905.426 -88.1072 902.543 -86.7303C901.023 -79.0976 885.817 -72.4148 880.145 -68.3709C880.75 -70.7493 879.272 -73.2356 883.351 -75.9965C886.032 -76.5806 888.014 -76.0763 890.198 -76.3648C888.72 -78.8512 885.636 -76.6814 884.158 -79.1678C887.041 -80.5447 895.689 -84.6754 892.229 -87.666C889.743 -86.1883 890.233 -84.7973 888.244 -83.6151C886.161 -83.7229 884.979 -85.712 882.896 -85.8199C885.094 -89.4814 892.135 -88.9561 896.107 -89.634C895.717 -91.4214 901.382 -93.7788 900.596 -95.667C902.988 -98.4349 907.839 -95.9345 908.055 -100.1C905.266 -97.4333 902.981 -96.7483 901.799 -98.7374C906.483 -103.877 913.222 -102.162 914.231 -106.126C912.45 -107.423 908.761 -102.875 906.88 -103.776C908.587 -108.828 911.55 -105.542 915.434 -109.197C914.158 -112.476 911.773 -111.394 909.394 -112C915.671 -118.422 918.129 -113.154 923.801 -117.198C922.424 -120.08 918.439 -116.029 919.447 -119.994C934.372 -130.547 943.452 -143.009 954.284 -147.428C955.285 -149.706 954.997 -151.89 957.685 -154.16C959.277 -155.443 960.762 -154.643 962.254 -155.53C962.369 -159.3 967.435 -160.965 971.32 -164.619C979.088 -171.929 986.273 -181.919 995.929 -190.013C1002.4 -195.542 1008.17 -199.982 1012.46 -205.223C1013.45 -204.127 1014.73 -202.535 1016.63 -205.007C1015.24 -206.203 1014.75 -207.594 1015.06 -208.783C1020.33 -212.928 1023.52 -217.181 1026.41 -220.244C1027.71 -222.024 1029.3 -223.307 1030.5 -224.691C1031.1 -225.383 1031.99 -225.578 1032.59 -226.27C1033.58 -226.861 1034.58 -227.452 1035.57 -228.043C1033.1 -229.939 1037.08 -233.989 1040.18 -237.846C1046.73 -240.398 1053.29 -242.95 1057.75 -240.55C1060.44 -242.821 1062.33 -245.293 1064.62 -247.665C1066.91 -250.036 1068.81 -252.508 1071.4 -254.383C1068.12 -254.793 1059.96 -247.585 1062.95 -251.045C1064.05 -252.032 1067.12 -252.516 1069.92 -256.869C1072.32 -261.323 1067.14 -255.888 1066.26 -259.067C1073.51 -262.707 1079.19 -266.751 1083.26 -267.826C1082.26 -267.234 1081.96 -266.045 1083.85 -266.831C1098.26 -273.716 1115.56 -281.977 1133.05 -289.345C1150.26 -300.583 1167.95 -307.057 1182.25 -311.859C1179.87 -310.777 1182.74 -310.468 1185.62 -311.845C1184.81 -306.987 1193.84 -307.644 1193.96 -311.413C1189.98 -310.735 1183.94 -311.852 1186.03 -315.117C1195.08 -319.147 1188.1 -311.636 1194.56 -313.792C1198.54 -316.156 1191.59 -315.391 1194.78 -317.957C1211.17 -322.651 1223.38 -325.874 1236.19 -328.103C1236.59 -329.688 1237.59 -330.28 1235.21 -330.885C1242.76 -334.028 1247.81 -332.32 1252.89 -335.672C1253.07 -333.092 1255.65 -333.28 1259.33 -334.455C1258.64 -336.74 1255.77 -337.049 1253.49 -338.051C1245.95 -336.594 1235.41 -331.677 1229.76 -332.693C1236.81 -335.541 1250.31 -337.171 1258.57 -341.403C1257.95 -337.338 1262.72 -339.5 1266.8 -340.575C1270.46 -340.064 1264.6 -336.913 1270.46 -338.377C1272.15 -340.057 1269.57 -339.869 1272.66 -342.039L1288.24 -345.248C1290.92 -345.832 1290.42 -343.85 1293.1 -344.434C1298.07 -347.389 1304.73 -350.338 1315.85 -352.573L1315.96 -354.656C1324.5 -356.704 1320.51 -350.967 1330.04 -353.606C1332.44 -356.373 1340.08 -358.227 1344.85 -360.389C1339.4 -360.511 1329.97 -358.269 1321.13 -356.718C1311.4 -354.973 1298.78 -350.164 1296.71 -353.645C1303.36 -354.907 1310.51 -356.465 1318.06 -357.921C1325.71 -359.774 1333.75 -361.527 1342.19 -363.178C1358.67 -366.582 1375.15 -369.986 1388.45 -370.823C1380.88 -364.307 1395.59 -369.008 1397.27 -367.314C1386.74 -364.084 1400.23 -365.715 1391.68 -360.294C1398.93 -362.248 1394.45 -357.901 1401.3 -359.956C1412.23 -364.772 1416.81 -367.828 1423.08 -372.564C1430.42 -373.228 1438.97 -375.276 1446.61 -377.129C1454.65 -378.881 1462.2 -380.338 1467.06 -379.524C1465.47 -379.928 1458.52 -377.476 1458.91 -377.375C1461.89 -377.462 1481.26 -382.243 1476.57 -377.104C1478.96 -378.185 1481.44 -379.663 1483.83 -380.744C1485.02 -380.442 1486.41 -380.932 1487.8 -381.422C1489.29 -382.309 1490.48 -382.006 1491.77 -382.1C1491.67 -381.704 1491.97 -381.206 1492.36 -381.105C1491.06 -377.639 1489.75 -374.172 1487.86 -371.699C1489.35 -372.586 1490.84 -373.473 1492.04 -374.857C1490.92 -367.123 1486.44 -364.463 1485.02 -357.227C1492.8 -367.909 1484.37 -344.73 1483.57 -343.245C1483.78 -345.724 1482.99 -345.926 1482.1 -345.731C1480.46 -334.329 1479.31 -343.064 1476.6 -335.734C1482.67 -339.677 1474.68 -328.202 1474.17 -324.534C1476.95 -323.828 1477.72 -318.567 1473.79 -304.793C1470.02 -304.908 1469.19 -296.677 1467 -293.016C1468.88 -293.802 1470.58 -295.481 1472.08 -298.054L1468.34 -281.701C1465.65 -279.43 1461.89 -281.231 1460.58 -276.078C1457.58 -270.932 1459.87 -273.303 1458.26 -266.961C1460.43 -265.563 1464.84 -276.259 1462.32 -266.348C1459.39 -253.166 1458.65 -265.173 1456.94 -260.121L1455.22 -253.382C1458.4 -254.262 1458.52 -258.031 1459.79 -254.752L1456.05 -238.398C1454.17 -237.612 1452.48 -237.619 1451.77 -233.158C1450.25 -225.525 1457.35 -240.178 1453.74 -229.281C1453.34 -229.382 1445.78 -224.552 1447.73 -217.302C1448.74 -221.266 1450.04 -223.046 1451.23 -224.43C1446.4 -207.089 1445.28 -201.042 1441.54 -183.002C1439.83 -177.949 1439.58 -188.565 1436.57 -181.733C1435.25 -173.206 1439.74 -180.926 1440.32 -176.558C1437.09 -163.873 1432.98 -152.68 1432.84 -143.851C1431.55 -143.757 1430.36 -144.06 1430.16 -141.58C1430.03 -136.125 1429.72 -131.562 1427.82 -127.404C1426.81 -125.126 1425.42 -124.636 1424.82 -122.257C1424.11 -119.482 1424.79 -115.511 1423.49 -112.044C1422.69 -110.56 1420.8 -109.774 1420.39 -108.188C1420.39 -108.188 1420.59 -107.295 1420.78 -106.401C1420.98 -105.507 1421.07 -104.217 1421.27 -103.323C1421.15 -99.5541 1418.95 -95.8925 1418.84 -92.1231C1418.34 -90.1411 1416.95 -91.3373 1416.15 -89.8526C1418.41 -85.478 1414.93 -83.4091 1413.72 -78.6522C1413.02 -75.8774 1413.71 -75.2793 1413.5 -72.7999C1412.89 -68.735 1410.79 -65.4699 1409.78 -61.5058C1409.47 -58.6301 1410.56 -56.2446 1409.95 -53.8661C1407.9 -39.192 1403.37 -23.0401 1402.52 -8.06335C1400.05 -9.95857 1400.52 -5.19461 1399.43 -4.2071C1397.13 -1.83567 1392.87 -3.34151 1391.27 1.31454C1392.79 -6.31807 1385.92 -0.890238 1384.74 -4.56579C1384.33 -1.29366 1383.43 0.587537 1381.75 0.580514C1382.06 -3.9817 1378.99 -5.18494 1375.22 -5.29984C1369.61 -14.7479 1371.84 -26.8418 1376.57 -42.1001C1378.38 -47.549 1379.59 -53.9924 1381.3 -59.0448C1380.02 -60.6375 1380.33 -63.5132 1380.73 -65.0988C1381.54 -69.9566 1384.23 -72.2272 1385.24 -76.1913C1385.64 -77.7769 1384.56 -78.4759 1385.16 -80.8543C1387.88 -91.5574 1392.2 -103.544 1394.54 -117.72C1396.64 -120.986 1396.71 -114.636 1398.91 -118.297C1399.31 -119.883 1395.25 -122.182 1398.83 -122.961C1400.1 -119.681 1403.32 -128.994 1405.41 -130.572C1402.44 -132.172 1406.63 -138.702 1401.66 -135.747C1401.97 -138.622 1403.55 -138.219 1404.75 -139.603C1405.38 -148.727 1410.67 -156.245 1409.92 -166.566C1413.3 -168.238 1412.58 -160.404 1414.38 -164.166C1413.6 -167.741 1410.43 -168.548 1411.34 -173.802C1415.2 -172.397 1411.45 -175.885 1413.55 -179.15C1416.42 -177.154 1416.93 -180.822 1418.22 -182.603C1416.74 -183.402 1416.55 -185.983 1416.36 -188.563C1416.18 -191.143 1416.49 -194.019 1416.2 -196.202C1419.17 -196.289 1420.2 -205.313 1421.61 -210.863C1426.19 -213.919 1419.99 -202.834 1423.07 -203.317C1424.1 -212.34 1427.29 -216.593 1424.93 -220.571C1427.34 -226.712 1430.43 -230.568 1432.83 -236.709C1430.45 -235.628 1430.42 -228.882 1427.35 -230.085C1430.56 -239.397 1429.8 -246.345 1431.31 -252.291C1432.82 -258.237 1433.75 -265.178 1438.53 -270.713C1438.4 -263.571 1432.02 -255.066 1433.08 -247.621C1435.17 -249.199 1438.16 -254.346 1439.38 -259.103C1441.89 -267.326 1441.62 -274.57 1444.42 -280.61C1442.26 -283.694 1445.79 -299.255 1449.41 -310.153C1449.61 -310.945 1452.61 -316.092 1453.01 -317.677C1454.42 -321.541 1454.45 -329.973 1458.23 -331.545C1461.81 -334.01 1451.83 -319.666 1456.1 -321.534C1462.77 -326.169 1457.93 -330.355 1463.02 -338.767C1459.92 -333.224 1458.64 -334.817 1460.75 -341.455C1463.65 -347.891 1464.62 -341.736 1467.83 -349.362C1464.14 -346.5 1466.16 -354.428 1464.57 -354.832C1463.68 -354.637 1462.69 -354.046 1462.09 -353.354C1461.69 -353.455 1461.3 -353.556 1460.9 -353.657L1460.5 -353.758L1460.11 -353.858C1459.31 -354.06 1458.92 -354.161 1458.52 -354.262C1457.83 -354.86 1458.03 -355.653 1456.24 -355.263C1456.24 -355.263 1454.85 -354.773 1452.96 -353.987C1451.08 -353.201 1449.19 -352.416 1447.9 -352.322C1445.22 -351.738 1442.64 -351.55 1439.96 -350.966C1438.36 -347.996 1433.79 -346.627 1431.9 -345.841C1430.51 -345.35 1427.42 -343.181 1427.93 -345.163C1430.21 -345.848 1432.2 -347.03 1433.69 -347.917C1426.25 -346.856 1421.19 -346.877 1419.01 -348.275C1428.65 -352.997 1425.85 -346.957 1435.88 -349.892C1437.77 -350.677 1447.11 -354.21 1442.85 -354.029C1439.57 -352.753 1436.29 -351.477 1432.02 -351.297C1432.32 -352.486 1432.13 -353.379 1431.04 -354.078C1413.87 -351.273 1405.22 -348.829 1388.75 -347.111C1386.85 -342.953 1380.29 -340.401 1375.11 -334.966C1356.83 -329.486 1336.66 -323.221 1322.16 -319.313C1319.49 -320.415 1315.12 -319.838 1311.35 -319.953C1309.26 -318.374 1304.1 -316.312 1298.63 -314.748C1293.17 -313.183 1287.91 -312.411 1284.93 -312.325C1285.73 -312.123 1287.02 -313.903 1284.74 -313.218C1283.64 -312.231 1282.25 -311.74 1280.86 -311.25C1279.87 -310.659 1278.47 -310.169 1277.08 -309.679C1274.3 -308.698 1271.62 -308.114 1268.94 -307.53C1263.18 -306.463 1256.53 -305.201 1250.07 -303.045C1249.48 -304.039 1249.49 -305.726 1247.7 -305.336C1243.23 -304.363 1242.72 -300.694 1236.86 -299.231C1234.18 -298.647 1230.61 -299.554 1227.83 -298.574C1227.83 -298.574 1230.51 -297.471 1228.62 -296.686C1228.62 -296.686 1226.34 -297.687 1225.05 -297.593C1215.42 -296.244 1202.88 -286.773 1190.48 -287.816C1193.47 -289.59 1202 -289.951 1199.83 -293.035C1189.4 -290.202 1189.58 -285.935 1178.36 -281.617C1175.68 -282.719 1168.75 -285.327 1167.83 -280.073C1170.12 -280.758 1172.5 -281.839 1172.79 -279.656C1165.14 -276.116 1155.7 -273.874 1149.74 -272.013C1146.96 -271.033 1143.87 -267.177 1142.49 -270.059C1144.98 -271.537 1149.74 -272.013 1147.37 -274.305C1142.31 -272.64 1141.6 -269.865 1138.91 -267.594C1137.42 -266.707 1130.36 -263.86 1134.44 -266.621C1135.94 -267.507 1138.62 -268.091 1138.13 -269.482C1133.35 -265.633 1136.06 -272.963 1132.28 -271.392C1133.16 -268.213 1121.04 -263.7 1126.19 -262.389C1122.01 -259.232 1117.24 -257.069 1112.07 -255.007C1109.69 -253.926 1106.91 -252.945 1104.42 -251.468C1101.93 -249.99 1099.55 -248.908 1097.36 -246.933C1093.49 -246.652 1097.77 -250.206 1094.39 -248.533C1091.7 -246.262 1091.09 -243.884 1085.83 -241.426C1083.84 -240.244 1083.45 -242.031 1082.06 -241.541C1079.07 -239.767 1076.88 -237.792 1074.3 -235.918C1072.1 -233.943 1069.91 -231.968 1067.53 -230.887C1065.94 -229.604 1059.98 -229.43 1062.25 -226.742C1064.53 -225.74 1068.82 -230.981 1070.6 -229.683C1066.92 -226.822 1065.32 -223.852 1068.58 -221.755C1075.56 -229.266 1085.01 -234.881 1094.34 -236.728C1103.79 -244.03 1113.85 -252.024 1128.45 -256.328C1129.43 -253.546 1134.01 -256.603 1133.79 -252.437C1132.69 -249.763 1122.96 -248.017 1124.23 -244.738C1130.29 -246.995 1136.77 -254.21 1143.43 -255.472C1147.09 -253.274 1138.95 -252.812 1140.63 -251.119C1145.69 -251.098 1144.32 -255.667 1144.82 -255.962C1146.51 -257.642 1149.08 -256.143 1149.09 -257.829C1148.41 -261.801 1144.02 -256.164 1141.84 -255.875C1140.95 -255.681 1138.87 -257.475 1137.98 -257.28C1135.89 -257.388 1131.22 -253.936 1132.72 -258.195C1137 -261.749 1137.98 -258.967 1140.56 -259.155C1141.06 -259.45 1144.15 -261.62 1147.62 -262.002C1150.4 -262.983 1148.43 -265.174 1152.4 -265.851C1163.03 -269.478 1179.31 -273.775 1192.33 -278.483C1204.25 -282.203 1214.2 -288.115 1222.33 -286.89C1219.66 -289.679 1232.17 -292.405 1233.55 -291.209C1227.59 -287.662 1236.62 -288.319 1239.39 -287.613C1242.16 -285.22 1235.12 -285.746 1237.79 -282.957C1240.67 -284.334 1243.75 -284.817 1245.84 -286.396C1246.33 -286.691 1245.65 -288.976 1246.25 -289.668C1249.04 -292.335 1254.19 -291.024 1254.1 -294C1248.95 -295.311 1244.07 -291.066 1241.78 -288.694C1240 -289.991 1235.72 -288.124 1235.94 -292.29C1240.21 -292.471 1239.13 -294.856 1242.6 -295.239C1244.39 -295.628 1244.38 -293.941 1246.07 -293.934C1253.22 -297.179 1259.98 -298.837 1266.63 -300.099C1270.2 -300.878 1273.78 -301.657 1277.75 -302.335C1279.54 -302.724 1281.82 -303.409 1284 -303.697C1286.29 -304.382 1288.97 -304.966 1291.25 -305.651C1293.54 -306.336 1293.03 -304.354 1294.72 -304.347C1299.9 -308.096 1300.88 -307 1307.93 -308.161C1320.34 -310.491 1336.43 -315.682 1339.1 -312.893C1344.28 -316.641 1347.84 -314.047 1353.8 -315.907C1350.8 -310.761 1357.17 -315.893 1356.76 -312.621C1356.86 -313.018 1351.98 -308.772 1355.46 -309.154C1361.12 -311.512 1361.01 -309.429 1365.79 -313.278C1368.29 -318.129 1356.85 -309.645 1359.45 -314.892C1368.38 -316.839 1371.27 -318.216 1378.91 -318.382C1379.21 -319.571 1377.62 -319.975 1382.09 -320.948C1386.55 -320.235 1377.02 -317.596 1377.21 -315.016C1381.87 -315.096 1375.1 -310.065 1376.79 -310.058C1381.16 -312.321 1380.97 -313.215 1382.07 -315.889C1386.04 -316.567 1389.52 -316.949 1391.41 -319.422C1386.94 -318.448 1382.97 -317.77 1387.35 -321.72C1391.92 -323.09 1392.21 -320.906 1395.68 -321.289C1399.56 -321.57 1408.41 -326.494 1406.01 -322.039C1401.04 -320.77 1393.7 -321.793 1392 -316.741C1399.74 -318.99 1407.29 -320.447 1412.94 -319.431C1413.05 -323.201 1418.1 -319.807 1424.46 -323.252C1427.24 -322.546 1417.49 -317.428 1420.07 -317.616C1421.26 -317.313 1422.16 -317.508 1423.15 -318.099C1423.65 -318.395 1424.05 -318.294 1424.54 -318.589C1424.94 -318.488 1424.94 -318.488 1425.44 -318.784C1426.33 -318.979 1427.82 -319.865 1428.02 -318.972C1427.92 -318.575 1427.71 -317.782 1427.31 -316.197C1425.5 -310.748 1423.34 -315.519 1422.72 -309.767C1423.51 -307.879 1428.31 -316.788 1428.49 -312.521C1428.99 -314.503 1429.89 -316.385 1431.98 -317.963C1430.07 -312.118 1430.24 -304.478 1426.84 -299.433C1423.57 -299.843 1432.16 -313.696 1427.38 -309.847C1426.46 -302.907 1424.06 -296.766 1419.08 -292.124C1417.95 -282.704 1415.24 -275.374 1413.8 -264.765C1414.8 -265.356 1415.6 -266.84 1416.59 -267.432C1414.18 -259.604 1415.96 -258.307 1413.65 -250.876C1415.24 -252.159 1416.24 -254.437 1417.83 -255.72C1417.03 -252.549 1416.22 -249.377 1415.81 -246.105C1413.13 -247.208 1410.25 -244.144 1408.63 -237.802L1414.2 -239.763C1413.29 -236.195 1412.27 -230.544 1410.96 -225.391C1409.95 -221.427 1409.62 -213.492 1406.35 -213.902C1406.87 -219.257 1411.08 -229.16 1409.4 -230.854C1406.68 -221.837 1405.81 -228.389 1405.33 -231.466C1399.46 -226.629 1402.64 -227.509 1402.12 -222.154C1401.91 -219.675 1400.12 -219.285 1400.61 -216.208L1403.69 -218.378C1403.47 -214.212 1403.36 -210.442 1403.04 -205.88C1400.15 -201.13 1400.78 -210.255 1398.88 -206.096C1398.05 -197.865 1398.83 -194.291 1400.3 -190.118C1400.49 -189.224 1402.49 -192.093 1402.78 -191.595C1403.38 -190.601 1400.98 -186.147 1401.17 -185.253C1397.9 -185.663 1399.31 -191.213 1396.74 -192.712C1395.92 -187.854 1393.05 -189.85 1392.93 -184.394C1395.02 -184.286 1394.54 -189.05 1396.82 -188.049C1398.09 -184.77 1394.52 -183.991 1393.91 -179.926C1395.1 -179.623 1395.6 -181.605 1397.08 -180.806C1395.09 -177.937 1395.87 -174.362 1394.96 -170.794C1394.05 -167.227 1391.36 -163.27 1390.45 -159.702C1389.44 -155.738 1392.3 -152.055 1389.12 -149.489C1389.12 -151.176 1388.34 -153.064 1387.44 -151.183C1385.13 -145.438 1390 -146.311 1388.09 -140.466C1383.52 -139.096 1385.15 -148.811 1381.95 -144.559C1381.05 -140.991 1384.33 -142.267 1385.21 -140.775C1385.9 -140.177 1384.4 -135.917 1387.28 -137.294C1386.06 -129.164 1381.98 -128.09 1380.57 -120.854L1383.34 -120.148C1381.52 -111.326 1381.42 -110.93 1381.79 -104.083C1379.29 -100.919 1376.65 -108.767 1374.24 -102.626C1373.43 -99.4549 1373.92 -98.0639 1376.01 -97.956C1377.5 -100.529 1374.44 -103.419 1377.42 -103.506C1377.4 -100.133 1379.97 -96.9475 1382.66 -99.2181C1379.76 -94.4682 1381.43 -89.4017 1378.64 -86.7347C1378.64 -88.4212 1377.46 -88.7238 1376.17 -88.6299C1373.56 -83.3827 1374.43 -76.8315 1369.85 -73.7751C1370.36 -75.7571 1367.48 -76.0667 1367.08 -74.4811C1366.57 -72.499 1367.76 -72.1965 1367.16 -69.818C1369.34 -70.1066 1369.85 -73.7751 1371.53 -70.3951C1367.72 -62.0775 1371.46 -55.2166 1366.27 -46.4088C1368.75 -46.2001 1370.13 -45.0039 1369.22 -41.4362C1368.72 -39.4541 1367.34 -40.6504 1366.54 -39.1656C1365.2 -28.9528 1362.1 -23.4101 1362.86 -14.7759C1360.08 -13.7954 1359.36 -7.64755 1358.05 -2.49425C1357.15 -0.613057 1357.42 4.94369 1355.44 4.43942C1355.76 -0.122798 1359.36 -7.64755 1357.78 -9.73749C1353.5 -6.18383 1352.86 4.62708 1354.73 8.90078C1353.13 11.8703 1348.03 20.2817 1351.49 23.2723C1352.2 20.4975 1353.83 9.09546 1354.81 13.5638C1353.2 18.2199 1351.25 34.1841 1350 25.8455C1349.08 31.0997 1344.09 37.4282 1345.67 41.2046C1348.83 43.698 1349.29 28.6204 1350.66 33.1896L1347.83 45.9756C1345.75 45.8677 1346.25 43.8856 1344.17 43.7778C1345.04 48.6425 1338.78 51.6919 1342.13 56.7654C1345.9 55.1938 1341.57 47.3384 1345.93 48.4478C1347.71 49.7449 1344.71 56.5778 1344.3 59.8499C1341.92 59.2448 1338.85 58.0415 1337.94 61.6092C1337.93 64.9822 1338.21 68.8524 1338.59 72.3262C1341.27 73.4286 1340.7 67.3746 1342.88 67.0861C1341.37 73.0322 1340.34 80.3693 1337.36 82.1426C1338.45 82.8416 1338.94 84.2325 1338.33 86.611C1333.39 82.8206 1334.33 94.0349 1330.56 93.92C1330.58 90.547 1330.82 81.3218 1326.33 85.6682C1328.59 91.7292 1329.65 99.1742 1332.01 104.839C1335.69 101.977 1329.87 95.0084 1335.73 93.5447C1334.02 98.5971 1334.6 101.278 1335.58 104.06C1331.41 105.531 1333.54 118.734 1329.35 123.578C1326.27 125.748 1328.88 117.127 1326.88 121.683C1326.76 125.452 1326.65 129.221 1327.53 132.4C1326.82 135.175 1325.23 136.458 1324.13 139.132C1321.42 144.775 1324.42 141.315 1323.5 146.57C1322.88 152.321 1319.41 151.017 1318.99 157.662C1321.88 154.599 1321.26 160.35 1323.14 161.251C1323.03 165.02 1317.67 166.188 1320.23 169.374C1324.01 166.116 1322.95 158.671 1325.45 155.506C1325.54 156.796 1326.71 162.158 1327.52 158.987C1325.64 158.087 1328.73 152.544 1327.25 151.744C1330.03 150.764 1329.3 158.598 1331.7 154.143C1333.61 148.298 1329.74 148.58 1332.15 142.439C1332.75 140.06 1334.83 141.855 1334.84 138.482C1333.55 138.576 1332.26 140.356 1333.16 136.788C1334.19 129.451 1340.02 134.733 1341.24 128.29C1338.36 127.98 1339.86 125.407 1337.27 127.282C1340.17 122.532 1338.5 117.465 1340.9 114.697C1342.87 116.888 1347.87 107.187 1352.23 108.296C1353.7 112.469 1350.03 113.644 1348.92 118.004C1351.89 119.604 1350.08 125.053 1353.15 126.256C1352.37 122.682 1351.77 123.373 1353.78 118.818C1357.65 118.537 1353.25 125.86 1357.12 125.578L1358.54 118.342C1354.96 119.121 1355.87 115.553 1356.78 111.986C1360.25 113.29 1358.24 119.531 1359.51 122.81C1358.22 122.904 1358.11 124.987 1357.61 126.969C1353.16 124.57 1352.04 130.617 1349.45 132.491C1352.03 133.99 1356.67 138.969 1352.19 143.316C1353.79 138.66 1349.53 137.154 1348.52 141.118C1349.21 143.403 1351.59 144.008 1352.27 146.292C1349.99 146.977 1348.58 150.841 1346.89 152.52C1343.03 151.115 1343.75 144.967 1340.98 142.575C1338.69 144.946 1337.97 151.094 1342.43 150.121C1342.02 153.393 1340.04 152.888 1339.83 157.054C1341.41 157.458 1342.7 157.364 1343.8 156.376C1344.38 159.057 1339.81 160.427 1342.39 161.926C1342.8 156.967 1344.97 160.052 1345.56 161.046C1346.17 158.668 1346.38 156.189 1348.26 157.089C1348.13 164.232 1344.45 167.093 1343.45 169.371C1341.34 174.323 1342.52 176.312 1339.84 176.896C1344.01 177.112 1341.08 188.607 1339.19 191.08C1339.2 189.393 1340.1 187.512 1338.91 187.209C1336.51 189.977 1338.39 192.564 1338.28 194.647C1338.27 196.334 1337.97 197.523 1337.57 199.109C1337.56 200.795 1337.06 202.777 1336.95 204.86C1336.44 208.529 1335.43 212.493 1334.82 216.558C1333.2 224.587 1331.18 232.515 1329.16 240.443C1328.56 242.822 1329.04 245.899 1328.93 247.982C1327.11 256.804 1324.39 267.507 1322 268.588C1323.16 277.323 1316.66 287.911 1315.55 292.272C1314.85 295.047 1314.83 298.42 1314.03 301.591C1313.32 304.366 1312.03 304.46 1311.32 307.235C1310.82 309.217 1312.01 309.519 1311.01 311.797C1310.91 312.193 1308.22 314.464 1307.92 315.653C1307.41 317.635 1306.7 322.096 1306.39 324.972C1305.89 326.954 1306.77 330.132 1306.06 332.907C1305.25 336.079 1302.16 339.935 1301.05 344.295C1300.55 346.277 1301.34 346.479 1300.63 349.254C1300.13 351.236 1298.83 353.016 1297.54 354.797C1296.24 356.577 1294.94 358.357 1294.44 360.339C1293.03 364.203 1291.03 368.758 1288.93 373.709C1286.82 378.661 1284.42 383.115 1282.52 387.274C1280.92 390.244 1280.91 393.617 1279.41 396.19C1278.41 398.467 1273.52 404.4 1273.32 405.192C1272.01 408.659 1271.11 410.54 1268.32 413.207C1271.01 412.623 1271.48 417.387 1268.71 416.681C1269.01 415.492 1268.81 414.598 1267.63 414.296C1266.52 416.97 1264.84 416.963 1263.83 419.24C1265.02 419.543 1265.82 418.058 1267.21 419.254C1266.4 422.426 1264.22 421.028 1263.42 422.513C1260.53 427.262 1252.53 442.11 1250.33 445.772C1248.13 449.433 1244.45 452.295 1241.96 455.459C1240.76 456.843 1240.55 459.322 1240.35 460.115C1238.56 462.191 1234.98 462.97 1233.58 465.147C1233.68 464.75 1233.47 468.916 1232.77 470.004C1229.27 477.133 1225.4 477.414 1223.01 480.182C1221.81 481.566 1221.1 484.341 1219.11 487.21C1217.01 490.475 1213.33 493.337 1211.53 495.412C1210.34 496.796 1210.93 497.791 1209.23 499.47C1204.65 504.213 1196.97 514.499 1189.7 521.512C1183.82 528.035 1179.13 533.175 1178.64 533.47C1172.17 538.999 1169.48 539.583 1174.47 533.255C1170.99 535.323 1167.6 538.682 1164.32 541.645C1162.62 543.325 1160.93 545.004 1159.24 546.683C1157.54 548.363 1155.45 549.942 1153.36 551.52C1149.68 554.382 1146.01 555.557 1142.82 558.123C1137.05 562.564 1130.38 567.199 1123.61 572.23C1116.85 577.261 1109.78 581.796 1103.12 586.431C1096.45 591.066 1089.59 594.807 1084.02 598.454C1078.45 602.102 1073.08 604.957 1069.6 607.025C1068.51 606.326 1066.93 605.923 1065.64 606.017C1058.28 610.054 1052.01 613.103 1048.92 616.959C1048.33 615.965 1047.94 614.177 1046.05 614.963C1043.86 618.625 1039.89 617.616 1035.02 620.175C1031.24 621.747 1035.7 624.147 1030.73 625.416C1030.14 624.421 1029.55 623.426 1027.06 624.904C1024.18 626.281 1026.26 628.075 1022.19 629.15C1019.42 626.757 1015.83 630.909 1013.44 631.99C1008.77 633.757 1002.22 636.309 995.261 638.76C988.407 640.815 981.849 643.367 977.575 645.234C973.302 647.102 969.136 646.886 964.069 648.551C962.282 648.941 962.376 650.231 960.091 650.916C955.623 651.889 951.954 651.378 948.077 653.346C945.295 654.326 946.874 656.416 942.607 656.597C938.247 655.488 933.187 655.467 928.128 655.445C933.295 653.384 928.941 650.588 926.664 649.586C930.938 647.719 933.135 644.057 938.598 642.493C941.777 641.613 945.243 642.917 947.239 640.049C941.985 639.134 937.423 638.817 932.544 643.063C929.481 640.173 935.83 640.1 933.956 637.513C928.493 639.078 928.58 642.054 931.348 644.447L928.566 645.427C927.672 645.622 926.779 645.817 925.885 646.011C926.591 643.237 931.073 638.89 926.518 636.887C929.3 635.907 931.188 635.121 931.592 633.535C928.911 634.119 929.818 630.552 926.539 631.828C917.999 633.875 909.459 635.923 900.918 637.971C892.479 639.623 884.832 641.476 877.885 642.24C877.092 642.039 876.299 641.837 876.003 641.34C874.713 641.434 873.322 641.924 872.032 642.018C871.333 643.106 871.132 643.899 869.64 644.786C866.361 646.062 865.87 644.671 864.984 643.179C863.694 643.273 862.303 643.763 860.616 643.756C858.923 645.435 857.33 646.719 853.46 647C852.271 646.697 850.786 645.898 849.301 645.098C847.514 645.487 845.431 645.379 843.247 645.668C843.146 646.064 843.146 646.064 842.649 646.36C844.833 646.071 848.011 645.192 848.501 646.583C845.027 646.965 844.523 648.947 839.961 648.63C839.766 647.737 839.672 646.447 838.879 646.245C837.986 646.44 837.092 646.634 836.299 646.433C836.595 646.93 836.89 647.427 837.186 647.924C834.001 650.491 829.842 648.588 825.474 649.165C828.545 650.369 823.471 653.721 828.927 653.842C833.201 651.975 840.048 651.607 846.203 650.64C848.567 654.619 836.177 651.889 836.264 654.865C837.453 655.168 838.246 655.369 837.944 656.559C841.331 653.2 843.003 656.58 846.873 656.298C848.769 653.826 849.561 654.027 847.687 651.44C851.363 650.265 861.395 647.331 865.157 649.132C861.684 649.514 859.795 650.3 859.788 651.987C861.871 652.095 863.752 652.995 865.835 653.103C864.754 650.718 868.329 649.939 871.01 649.355C878.743 650.478 886.101 646.441 892.04 649.641C894.614 651.139 893.007 655.795 897.865 656.609C895.184 657.193 893.195 658.376 892.395 659.861C897.858 658.296 898.24 661.77 902.009 661.885C904.69 661.3 909.865 657.552 912.337 659.447C908.547 664.392 898.139 662.166 892.784 661.648L893.462 665.619C886.414 666.78 882.039 669.044 876.079 670.904C872.41 670.392 868.742 669.881 864.972 669.766C841.139 675.521 815.935 676.705 794.421 673.342C792.137 674.027 790.645 674.914 788.757 675.699C783.409 673.495 774.082 673.654 767.827 675.017C764.259 674.109 762.284 671.919 757.124 672.294C756.821 673.483 763.164 675.097 758.695 676.07C757.614 673.685 752.85 674.161 749.679 673.354L749.766 676.331C741.931 675.604 731.625 672.982 726.054 676.629C725.463 675.635 724.475 674.539 722.99 673.74C716.043 674.504 704.05 671.875 693.433 672.128C693.037 672.028 690.846 674.003 690.45 673.902C686.378 674.976 681.823 672.973 680.129 674.653C680.223 675.943 682.803 675.755 682.998 676.649C676.05 677.413 675.963 674.437 672.497 673.133C672.785 675.316 671.293 676.203 668.021 675.793C664.547 676.175 663.862 673.89 660.59 673.48C658.111 673.271 654.234 675.239 651.358 674.93C647.689 674.418 648.093 672.833 643.927 672.617C643.725 673.41 642.832 673.605 640.749 673.497C640.843 674.787 643.12 675.788 640.439 676.372C625.087 670.356 596.806 672.024 575.494 667.868C567.465 666.248 556.654 665.607 547.335 664.08C546.253 661.695 532.97 659.16 539.998 663.058C532.077 659.354 523.536 661.402 513.626 658.881C513.438 656.3 510.368 655.097 506.901 653.793C506.699 654.586 505.409 654.68 505.208 655.473C504.804 657.058 509.071 656.878 509.165 658.168C502.022 658.039 500.544 655.552 497.777 653.16C493.59 658.004 476.753 651.188 466.936 649.956C465.25 649.949 458.115 648.134 462.778 648.054C465.257 648.263 469.711 650.662 468.832 647.484C460.399 647.449 461.401 645.171 454.864 642.664C454.38 639.586 456.96 639.399 457.566 637.02C455.584 636.516 455.591 634.83 453.609 634.325C438.841 630.99 424.073 627.655 409.405 623.923C409.03 618.763 416.944 624.153 417.247 622.964C416.67 618.596 411.301 621.451 405.953 619.246L404.944 623.21L399.394 621.798C396.72 620.696 401.982 619.924 397.325 618.317C394.45 618.008 392.064 619.089 390.767 620.87C383.927 619.551 382.738 619.249 374.709 617.628C374.226 614.551 377.202 614.464 377.707 612.482L372.157 611.07C369.295 607.387 380.812 605.253 371.601 601.643C372.401 600.158 373.893 599.271 375.089 597.887C336.543 586.814 313.76 578.485 313.76 578.485C313.76 578.485 335.671 462.504 386.447 347.536C387.637 347.838 386.044 349.122 383.665 348.516Z" fill="url(#paint1_linear_447_37417)"/>
</mask>
<g mask="url(#mask0_447_37417)">
<path d="M793.373 379.631L966.679 609.178L966.859 611.476L997.809 855.818L977.6 858.285L946.653 616.949L776.721 392L793.373 379.631Z" fill="white"/>
<path d="M909.615 321.511L918.501 340.254C761.319 414.446 523.862 526.44 513.231 532.8C513.231 532.8 514.117 532.27 514.293 531.563L500.091 516C502.04 514.232 503.988 512.465 707.421 416.016C807.898 369.735 908.729 322.041 909.615 321.511Z" fill="white"/>
<path d="M769.092 75.3582L769.625 76.2423L891.117 268.819L891.65 269.703L972.56 479.944L1363.33 789.311L1350.94 805.748L955.022 492.843L873.043 277.829L752.972 88.6114L483.55 -157.416L497.894 -172.614L769.092 75.3582Z" fill="white"/>
<path d="M1699.63 441.336L1693.09 461.488L1012.38 254.016L888.841 293.039L882.436 273.413L1011.82 232.094L1699.63 441.336Z" fill="white"/>
<path d="M1020.5 184.923L1015.19 205.379L1689.61 380.699L1694.93 360.243L1020.5 184.923Z" fill="white"/>
<path d="M1053.51 35.7956L1049.21 56.4871L1729.19 198.17L1733.5 177.478L1053.51 35.7956Z" fill="white"/>
<path d="M1063.68 -624.808L935.707 -124.177C973.125 -117.091 1100.28 -92.1127 1226.72 -67.3116C1314.33 -49.9512 1384.73 -36.1335 1435.63 -25.6826C1534.59 -5.48903 1535.12 -4.60486 1538.67 -0.713975L1523.09 13.4234C1524.86 15.3688 1526.28 15.723 1526.28 15.723C1509.07 9.17484 1154.92 -60.445 921.189 -105.266L910.372 -107.215L1043.64 -629.059L1063.68 -624.808Z" fill="white"/>
<path d="M1195.64 -585.862L1196.17 -584.977C1199.55 -580.379 1201.32 -578.434 1182.27 -496.055C1172.74 -454.866 1159.33 -398.12 1142.39 -327.232C1113.8 -209.676 1084.32 -91.5885 1082.56 -84.5175L1022.12 245.18L1001.19 241.459L1061.81 -88.9456C1108.76 -274.031 1177.76 -556.521 1177.56 -576.852C1177.39 -573.14 1180.77 -568.542 1187.33 -567.655L1188.01 -588.516C1191.2 -589.222 1194.04 -588.514 1195.64 -585.862Z" fill="white"/>
<path d="M779.691 98.3367L777.227 119.329L1029.9 149.2L1032.37 128.208L779.691 98.3367Z" fill="white"/>
<path d="M993.177 -100.819C954.992 -2.18235 915.048 109.536 914 122.795C914 122.795 913.996 119.79 911.688 116.96C909.913 115.015 907.252 113.599 904.947 113.775L904.261 134.636C900.538 134.458 897.167 132.866 895.745 129.506C891.838 124.024 889.707 120.487 932.657 2.75912C953.339 -52.9229 973.843 -107.898 974.02 -108.605L993.177 -100.819Z" fill="white"/>
<path d="M620.161 -59.0308L616.11 -38.2864L937.591 24.5949L941.642 3.85048L620.161 -59.0308Z" fill="white"/>
<path d="M630.264 -503.274L750.671 83.9732L771.442 79.769L651.035 -507.478L630.264 -503.274Z" fill="white"/>
<path d="M621.364 45.2443L743.587 413.025L723.914 419.381L603.65 58.8505L447.515 -37.2104L458.666 -54.7086L621.364 45.2443Z" fill="white"/>
<path d="M1177.67 295.274L1141.4 365.094L1265.07 449.297L1134.77 621.089L1118.27 608.707L1235.12 454.589L1114.1 371.801L1159.57 286.251L1177.67 295.274Z" fill="white"/>
</g>
</g>
<defs>
<linearGradient id="paint0_linear_447_37417" x1="1015.09" y1="-167.127" x2="695.321" y2="602.388" gradientUnits="userSpaceOnUse">
<stop stop-color="#E6DCBF"/>
<stop offset="1" stop-color="white" stop-opacity="0"/>
</linearGradient>
<linearGradient id="paint1_linear_447_37417" x1="1015.09" y1="-167.127" x2="695.321" y2="602.388" gradientUnits="userSpaceOnUse">
<stop stop-color="#E6DCBF"/>
<stop offset="1" stop-color="white" stop-opacity="0"/>
</linearGradient>
<clipPath id="clip0_447_37417">
<rect width="1300" height="500" fill="white"/>
</clipPath>
</defs>
</svg>
