<svg width="1728" height="762" viewBox="0 0 1728 762" fill="none" xmlns="http://www.w3.org/2000/svg">
<g clip-path="url(#clip0_447_37372)">
<rect width="1728" height="762" fill="#343637"/>
<g opacity="0.1">
<path d="M-19.3019 415.823L-26.2528 635.853L-27.2494 637.31L-126.145 797.793L-139.374 789.558L-41.9198 630.867L-35.1662 415.197L-19.3019 415.823Z" fill="black"/>
<path d="M77.886 437.008L74.1806 452.446C-55.1246 421.178 -250.425 373.888 -259.815 372.573C-259.815 372.573 -259.033 372.683 -258.588 372.346L-259.578 356.251C-257.568 356.133 -255.558 356.016 -88 396.23C-5.89302 416.901 77.1035 436.899 77.886 437.008Z" fill="black"/>
<path d="M112.349 222.825L112.242 223.608L92.166 396.722L92.0589 397.505L39.3147 561.658L123.632 933.692L108.353 937.536L22.6679 560.923L77.0675 393.412L96.3777 222.982L53.9605 -53.0282L69.8081 -55.1975L112.349 222.825Z" fill="black"/>
<path d="M491.168 887.813L477.594 896.683L171.541 446.133L79.178 410.064L84.7861 395.291L181.737 432.8L491.168 887.813Z" fill="black"/>
<path d="M209.567 408.859L196.573 418.496L514.315 846.863L527.309 837.226L209.567 408.859Z" fill="black"/>
<path d="M304.503 371L292 381.264L629.211 792.255L641.714 781.991L304.503 371Z" fill="black"/>
<path d="M624.16 -52.9806L307.47 183.922C326.367 206.115 390.152 282.064 453.598 357.568C497.472 409.986 532.795 452.031 558.11 482.702C607.387 542.26 607.28 543.042 607.528 547.066L591.45 548.007C591.573 550.019 592.249 550.911 592.249 550.911C585.139 538.746 407.51 327.18 289.736 188.221L284.225 181.864L614.258 -65.1378L624.16 -52.9806Z" fill="black"/>
<path d="M747.689 -18.8237L747.582 -18.0408C747.385 -13.6803 747.509 -11.6684 696.591 28.2759C671.133 48.248 635.889 75.6265 591.75 109.738C518.257 166.069 443.981 222.29 439.534 225.656L245.181 393.12L234.497 380.854L429.294 213.053C546.16 125.296 722.946 -9.92127 732.591 -22.1344C730.705 -20.0049 730.507 -15.6444 733.992 -11.9651L744.419 -24.0687C746.659 -22.9571 748.01 -21.1723 747.689 -18.8237Z" fill="black"/>
<path d="M107.631 241.61L96.0813 252.937L232.322 392.082L243.872 380.755L107.631 241.61Z" fill="black"/>
<path d="M330.503 225.442C260.377 265.889 182.921 313.287 175.929 320.685C175.929 320.685 177.37 318.893 177.353 316.098C177.23 314.086 176.324 311.964 174.866 310.962L164.439 323.066C162.305 321.171 161.061 318.604 161.827 315.919C162.131 310.775 162.559 307.644 244.694 258.108C283.759 234.855 322.38 211.938 322.825 211.602L330.503 225.442Z" fill="black"/>
<path d="M88.1288 71.2114L75.7527 81.6293L237.148 273.491L249.524 263.073L88.1288 71.2114Z" fill="black"/>
<path d="M307.491 -188.692L97.2338 219.113L111.632 226.582L321.888 -181.223L307.491 -188.692Z" fill="black"/>
<path d="M38.7697 133.934L-65.0095 411.816L-79.787 406.156L21.6782 133.536L-25.2414 1.3057L-10.1931 -3.76802L38.7697 133.934Z" fill="black"/>
<path d="M-33.7031 625.303L-32.76 641.489L47.5272 637.053L46.5841 620.867L-33.7031 625.303Z" fill="black"/>
<path d="M250.236 550.1L195.092 574.293L228.361 683.868L68.2064 723.677L64.3175 708.373L207.966 672.635L175.603 565.182L243.786 536.032L250.236 550.1Z" fill="black"/>
</g>
</g>
<defs>
<clipPath id="clip0_447_37372">
<rect width="1728" height="762" fill="white"/>
</clipPath>
</defs>
</svg>
