<svg width="168" height="50" viewBox="0 0 168 50" fill="none" xmlns="http://www.w3.org/2000/svg">
<path d="M56.087 10H51L64.5652 39.9721L77.113 10H72.3652L64.2261 29.0731L56.087 10Z" fill="black"/>
<path d="M56.087 10H51L64.5652 39.9721L77.113 10H72.3652L64.2261 29.0731L56.087 10Z" fill="black"/>
<path d="M56.087 10H51L64.5652 39.9721L77.113 10H72.3652L64.2261 29.0731L56.087 10Z" fill="black"/>
<path d="M101.87 39.9722L106.957 39.9722L93.3913 10.0001L80.8435 39.9722L85.5913 39.9722L93.7305 20.899L101.87 39.9722Z" fill="black"/>
<path d="M101.87 39.9722L106.957 39.9722L93.3913 10.0001L80.8435 39.9722L85.5913 39.9722L93.7305 20.899L101.87 39.9722Z" fill="black"/>
<path d="M101.87 39.9722L106.957 39.9722L93.3913 10.0001L80.8435 39.9722L85.5913 39.9722L93.7305 20.899L101.87 39.9722Z" fill="black"/>
<path d="M162.913 39.9722L168 39.9722L154.435 10.0001L141.887 39.9722L146.635 39.9722L154.774 20.899L162.913 39.9722Z" fill="black"/>
<path d="M162.913 39.9722L168 39.9722L154.435 10.0001L141.887 39.9722L146.635 39.9722L154.774 20.899L162.913 39.9722Z" fill="black"/>
<path d="M162.913 39.9722L168 39.9722L154.435 10.0001L141.887 39.9722L146.635 39.9722L154.774 20.899L162.913 39.9722Z" fill="black"/>
<path d="M138.157 24.3224H127.304V28.4095H134.087V31.1342C133.409 32.8372 130.694 36.2052 125.27 35.9025C119.165 35.5619 114.417 31.8154 114.417 25.0036C114.417 17.8512 119.844 14.1046 125.27 14.1046C129.611 14.1046 132.504 16.6023 133.409 17.8511L136.122 15.467C135.444 13.764 132.391 10.3581 125.27 10.0175C116.462 9.59633 110.348 16.8294 110.348 25.0036C110.348 33.1778 114.757 39.649 125.27 39.9896C133.68 40.2621 137.365 35.1078 138.157 32.4966V24.3224Z" fill="black"/>
<path d="M32.6056 0H2.22657C-0.909325 0.79602 -0.0600189 5.47264 0.756621 7.71144C5.06848 20.8458 16.2728 17.6617 21.336 14.4279C18.3144 17.8275 12.2713 26.5672 12.2713 34.3284C12.2713 42.0896 15.8645 48.0099 17.6611 50C23.2959 35.9867 34.8105 7.16418 35.7905 3.9801C36.7705 0.79602 34.0755 0 32.6056 0Z" fill="url(#paint0_linear_447_37455)"/>
<path d="M23.5409 14.9254L21.091 12.4378L25.0108 10.9453L23.5409 14.9254Z" fill="white"/>
<defs>
<linearGradient id="paint0_linear_447_37455" x1="0" y1="28.6458" x2="36" y2="28.6458" gradientUnits="userSpaceOnUse">
<stop stop-color="#FFCE21"/>
<stop offset="1" stop-color="#E84747"/>
</linearGradient>
</defs>
</svg>
